<svg xmlns="http://www.w3.org/2000/svg" viewBox="0 0 93.25 93.24"><defs><style>.cls-1{fill:#110828;}.cls-2{fill:#fff;}.cls-3{fill:#9364ed;}.cls-4{fill:#07cbf5;}.cls-5{fill:#fd8753;}</style></defs><g id="Layer_2" data-name="Layer 2"><g id="Layer_1-2" data-name="Layer 1"><path class="cls-1" d="M93.25,46.62a46.43,46.43,0,0,1-7.41,25.22l-.14.22c-.7,1.08-1.45,2.13-2.24,3.15-.6.78-1.23,1.53-1.9,2.27-.2.24-.42.48-.64.72s-.63.68-1,1Q78.22,81,76.31,82.57l-.32.25c-.71.59-1.45,1.15-2.2,1.67-.19.15-.38.29-.58.42a37.76,37.76,0,0,1-3.42,2.15c-.19.12-.39.23-.59.34a45.52,45.52,0,0,1-5.28,2.5l-.09,0a44,44,0,0,1-6.45,2c-.73.17-1.46.33-2.21.46l-.1,0a42.79,42.79,0,0,1-4.26.59c-1.38.13-2.78.19-4.19.19a46.64,46.64,0,0,1-9.59-1,45,45,0,0,1-6.24-1.77l-.2-.08q-2.18-.8-4.26-1.8c-.32-.15-.63-.31-.94-.47l-.3-.16a38.29,38.29,0,0,1-3.62-2.1l-.31-.19-.27-.19c-.8-.52-1.58-1.07-2.33-1.64-.21-.15-.41-.31-.61-.47a43.65,43.65,0,0,1-4.27-3.76c-.94-.94-1.85-1.93-2.71-3a2.43,2.43,0,0,1-.2-.25,46.62,46.62,0,1,1,82.48-29.8Z"/><path class="cls-2" d="M33.94,40.66l21.63-2.18,1-.1,2.75-.28s1.88-6.81.16-11.48-5.73-2.76-5.73-2.76a20.19,20.19,0,0,0-5-2.88A24.67,24.67,0,0,0,45,19.78,26.79,26.79,0,0,0,40,19c-8.71-.48-5.87,5.45-5.87,5.45s-1.93,1.36-2.71,5.66A13.09,13.09,0,0,0,33.94,40.66Z"/><path class="cls-3" d="M20.89,85.49c-.8-.52-1.58-1.07-2.33-1.64-.21-.15-.41-.31-.61-.47a43.65,43.65,0,0,1-4.27-3.76c-.94-.94-1.85-1.93-2.71-3a2.43,2.43,0,0,1-.2-.25,116.17,116.17,0,0,1,9.84-10.79S20.89,85.49,20.89,85.49Z"/><path class="cls-4" d="M63.92,89.9l-.09,0a44,44,0,0,1-6.45,2c-.73.17-1.46.33-2.21.46l-.1,0a42.79,42.79,0,0,1-4.26.59c-1.38.13-2.78.19-4.19.19a46.64,46.64,0,0,1-9.59-1,45,45,0,0,1-6.24-1.77,47.24,47.24,0,0,1-4.46-1.88c-.32-.15-.63-.31-.94-.47l-.3-.16c2.61-12.74,8.78-29.1,13.4-31.41,7.89-4,15.74.51,15.74.51Z"/><path class="cls-3" d="M81.56,77.48c-.2.24-.42.48-.64.72s-.63.68-1,1Q78.22,81,76.31,82.57l-.32.25c-.71.59-1.45,1.15-2.2,1.67-.19.15-.38.29-.58.42a37.76,37.76,0,0,1-3.42,2.15c-.19.12-.39.23-.59.34a45.43,45.43,0,0,1-5.37,2.54,44,44,0,0,1-6.45,2c-.73.17-1.46.33-2.21.46C54.29,73,52.81,57.77,52.81,57.77l-15.09-1c2.18-.75,3.65-1.17,3.65-1.17l9.32.13s19.92,2.49,27.94,10C80.32,67.31,81.21,71.63,81.56,77.48Z"/><path class="cls-3" d="M38.49,56.56s-1.64,11.29-7.9,33.84q-2.18-.8-4.26-1.8c-.32-.15-.63-.31-.94-.47l-.3-.16a38.29,38.29,0,0,1-3.62-2.1l-.31-.19-.27-.19c-.8-.52-1.58-1.07-2.33-1.64-.21-.15-.41-.31-.61-.47.22-8.1.63-14.21,1.34-15.86a6.47,6.47,0,0,1,1.32-1.86C24.3,61.82,33.53,58.26,38.49,56.56Z"/><path class="cls-2" d="M47.49,24.46s8.89-19.84,19-9.76c8.49,8.44-4.68,21.44-12.3,17.73S47.49,24.46,47.49,24.46Z"/><path class="cls-5" d="M52.94,48.1l-.41,10.61s-2,3-8.27,3.24c-4.64.2-6-2.23-6-2.23l1.48-9.25,11.31-2Z"/><path d="M53,47.45a3.38,3.38,0,0,1-.35,1c-2.58,5.21-11,7.09-13.71,7.23l.84-5.22Z"/><path class="cls-5" d="M38.31,26.17s-6.09,13.1-4.18,20.58,8.7,6.47,12.79,5.13a13.41,13.41,0,0,0,6-3.78A5.72,5.72,0,0,0,59.31,46c2.62-3.46,1.15-7.54-1-8.51s-4.74.52-4.74.52l2.1-3.8S47.67,14.48,38.31,26.17Z"/><path class="cls-2" d="M53.58,38S47.87,39.09,44,32.7s-3.47-9-3.47-9l-4,6.48s-.82-4.55,1-7.41,3.73-2.24,3.73-2.24l12.5,3.31L56.94,34Z"/><path d="M38.53,43.08a.5.5,0,0,1-.48-.36c-.84-2.88,1.23-5.76,1.32-5.88a.5.5,0,0,1,.69-.11.49.49,0,0,1,.11.7s-1.86,2.6-1.16,5a.5.5,0,0,1-.34.62Z"/><path d="M54,44.31a.49.49,0,0,1-.35-.14.5.5,0,0,1,0-.71l3.65-3.74a.5.5,0,0,1,.72.69L54.4,44.16A.51.51,0,0,1,54,44.31Z"/><path d="M57.87,43.36h-.09l-2.48-.42a.51.51,0,0,1-.41-.58.51.51,0,0,1,.58-.41l2.48.42a.51.51,0,0,1,.41.58A.5.5,0,0,1,57.87,43.36Z"/><path d="M38.25,32.21H36.13a.51.51,0,0,1-.5-.5.5.5,0,0,1,.5-.5h2.12a.5.5,0,0,1,.5.5A.51.51,0,0,1,38.25,32.21Z"/><path d="M44.92,33.38l-.13,0-2.86-.75a.5.5,0,1,1,.25-1l2.87.75a.5.5,0,0,1-.13,1Z"/><path d="M36.06,37.64a.4.4,0,0,1-.15,0,.5.5,0,0,1-.33-.63l.69-2.12-.56-.7a.5.5,0,0,1,.79-.62l.72.91a.5.5,0,0,1,.08.46l-.76,2.38A.51.51,0,0,1,36.06,37.64Z"/><path d="M43.66,38.37l-.15,0a.5.5,0,0,1-.32-.63l.68-2.12-.82-1a.51.51,0,0,1,.06-.71.49.49,0,0,1,.7.07l1,1.19a.49.49,0,0,1,.09.48L44.14,38A.5.5,0,0,1,43.66,38.37Z"/><path d="M40.4,46.59a2,2,0,0,1-1-.25.51.51,0,0,1-.19-.68.5.5,0,0,1,.68-.19c1,.57,3-1,3.56-1.6a.5.5,0,0,1,.71,0,.51.51,0,0,1,0,.71C43.91,44.82,42.07,46.59,40.4,46.59Z"/><path class="cls-3" d="M85.84,71.84l-.14.22c-.7,1.08-1.45,2.13-2.24,3.15s-1.65,2-2.54,3c-.31.34-.63.68-1,1Q78.22,81,76.31,82.57l-.32.25c-.71.59-1.45,1.15-2.2,1.67l1-21.53A83.53,83.53,0,0,1,85.84,71.84Z"/><path class="cls-2" d="M43.56,62.46h-.13c-5.31-.05-6.16-3.27-6.2-3.41a.51.51,0,0,1,.37-.61.5.5,0,0,1,.6.37c0,.1.75,2.61,5.24,2.65h.12a17,17,0,0,0,8.91-2.93.5.5,0,0,1,.7.1.51.51,0,0,1-.11.7A17.7,17.7,0,0,1,43.56,62.46Z"/></g></g></svg>