<svg xmlns="http://www.w3.org/2000/svg" viewBox="0 0 93.25 93.24"><defs><style>.cls-1{fill:#110828;}.cls-2{fill:#fff;}.cls-3{fill:#5e1dbb;}.cls-4{fill:#fd8753;}.cls-5{fill:#ffb700;}</style></defs><g id="Layer_2" data-name="Layer 2"><g id="Layer_1-2" data-name="Layer 1"><path class="cls-1" d="M93.25,46.62a46.46,46.46,0,0,1-6.62,24c-.51.85-1,1.69-1.61,2.5-.69,1-1.4,2-2.16,2.88-.48.59-1,1.17-1.48,1.73A46.63,46.63,0,0,1,7.83,72.47c-.62-.92-1.2-1.86-1.75-2.82a46.63,46.63,0,1,1,87.17-23Z"/><path class="cls-2" d="M32.54,36.27s-10.28,8.83-9,21.58S37.45,69,40.11,64.31c4-7.05-.26-20.61-.26-20.61S33.24,44.39,32.54,36.27Z"/><path class="cls-2" d="M58.69,37.27s10.67,8,11.46,17.82c1.2,14.79-15.62,8.32-17.47-1.11S58.69,37.27,58.69,37.27Z"/><path class="cls-2" d="M59.65,36.27a13.61,13.61,0,0,0,2.74-10.85c-.75-4.47-2.74-5.91-2.74-5.91s3-6.1-6-5.74a25.3,25.3,0,0,0-14.32,4.8s-4.13-2-6,2.78,0,11.9,0,11.9Z"/><path class="cls-3" d="M16.53,82.22a46.6,46.6,0,0,0,55.34,3.59q.6-.37,1.17-.78a45.92,45.92,0,0,0,8.34-7.34c.51-.56,1-1.14,1.48-1.73L53.35,54.58l-1.14-.83-11.59.94-4.81.39Z"/><path class="cls-3" d="M85,73.08c-.69,1-1.4,2-2.16,2.88-.48.59-1,1.17-1.48,1.73L52.21,54.5s.39,0,1.12.07c3.9.38,14.19,3,27.6,14.15A29,29,0,0,1,85,73.08Z"/><path class="cls-4" d="M39.85,43.7l.22,11.76s2,3.32,8.51,3.68c4.8.26,6.27-2.42,6.27-2.42L53.5,46.46,41.81,44.1Z"/><path class="cls-3" d="M24.18,81.62l7.54,9.19A46.8,46.8,0,0,1,7.83,72.47c9.21-10.9,21.48-16.31,28-17.39,3-.51,4.24-.58,4.24-.58Z"/><path d="M39.85,43a3.68,3.68,0,0,0,.35,1c2.6,5.44,11.32,7.51,14.1,7.69l-.79-5.42Z"/><path class="cls-4" d="M55.33,21.19s6.12,13.66,4,21.39S50.25,49.16,46,47.71a13.86,13.86,0,0,1-6.19-4,5.92,5.92,0,0,1-6.57-2.25c-2.66-3.63-1.08-7.83,1.15-8.81s4.91.61,4.91.61l-2.13-4S45.8,8.94,55.33,21.19Z"/><path class="cls-2" d="M39.34,33.25s5.9,1.19,10-5.38,3.72-9.26,3.72-9.26l4.09,6.78s.91-4.7-1-7.69-3.83-2.38-3.83-2.38l-13,3.25L35.91,29Z"/><path d="M54.86,38.69l-.14,0a.49.49,0,0,1-.33-.63c.76-2.49-1.12-5.19-1.14-5.22a.51.51,0,0,1,.12-.7.52.52,0,0,1,.7.12c.09.13,2.18,3.13,1.27,6.1A.5.5,0,0,1,54.86,38.69Z"/><path d="M38.77,39.74a.51.51,0,0,1-.36-.15l-3.74-3.94A.5.5,0,0,1,35.4,35l3.73,3.94a.49.49,0,0,1-.36.84Z"/><path d="M34.82,38.7a.5.5,0,0,1-.07-1l2.57-.39a.51.51,0,0,1,.58.41.5.5,0,0,1-.42.57l-2.58.4Z"/><path d="M52.39,43.62a1.72,1.72,0,0,1-.66-.13c-1.49-.65-2.23-2.81-2.26-2.9a.5.5,0,0,1,.59-.65L54.62,41a.47.47,0,0,1,.34.29.48.48,0,0,1,0,.45A3.5,3.5,0,0,1,52.39,43.62Zm-1.57-2.47a3.23,3.23,0,0,0,1.31,1.42c.52.23,1.12-.29,1.51-.74Z"/><path d="M55.76,27.56a.51.51,0,0,1-.5-.47.5.5,0,0,1,.47-.53l1.74-.1a.5.5,0,0,1,.53.47.5.5,0,0,1-.47.53l-1.74.1Z"/><path d="M48.41,28.53a.49.49,0,0,1-.14-1l3.18-1a.5.5,0,0,1,.62.33.48.48,0,0,1-.33.62l-3.18,1A.39.39,0,0,1,48.41,28.53Z"/><path d="M57.5,33.09a.49.49,0,0,1-.47-.36l-.76-2.47a.5.5,0,0,1,.09-.47l.76-.93a.5.5,0,1,1,.77.64l-.59.72L58,32.44a.5.5,0,0,1-.33.62Z"/><path d="M50.05,33.75a.51.51,0,0,1-.48-.35l-.76-2.48a.5.5,0,0,1,.1-.47L50,29.22a.5.5,0,0,1,.76.66l-.87,1,.68,2.21a.51.51,0,0,1-.33.63Z"/><path class="cls-5" d="M49.08,59.48c-2.46,0-5.58-.87-9.3-3.61a.5.5,0,0,1,.59-.81c9.23,6.81,14.17,1.49,14.37,1.26a.51.51,0,0,1,.71,0,.5.5,0,0,1,0,.71A9,9,0,0,1,49.08,59.48Z"/><path class="cls-5" d="M67.64,69.6c.3.25,6.61,5.88,4.23,16.21q.6-.37,1.17-.78c1.87-10.34-4.67-16.13-4.75-16.19a.49.49,0,0,0-.7,0A.51.51,0,0,0,67.64,69.6Z"/></g></g></svg>