<svg xmlns="http://www.w3.org/2000/svg" viewBox="0 0 93.24 93.24"><defs><style>.cls-1{fill:#110828;}.cls-2{fill:#5e1dbb;}.cls-3{fill:#e2209e;}.cls-4{fill:#fd8753;}.cls-5{fill:#ffb700;}</style></defs><g id="Layer_2" data-name="Layer 2"><g id="Layer_1-2" data-name="Layer 1"><path class="cls-1" d="M93.24,46.62a46.51,46.51,0,0,1-6.82,24.3,45.09,45.09,0,0,1-4.68,6.36c-.76.88-1.56,1.72-2.39,2.54-1,1-2.09,2-3.2,2.89a46.27,46.27,0,0,1-6.61,4.53c-.67.37-1.34.73-2,1.07l-.64.32-.8.37c-.35.17-.71.32-1.07.48L63.66,90l-1,.4c-.23.08-.46.17-.7.24l-.82.28L60,91.3a46.71,46.71,0,0,1-39.61-6.16,47.19,47.19,0,0,1-8.93-8c-.33-.38-.65-.76-1-1.15A46.62,46.62,0,1,1,93.24,46.62Z"/><path class="cls-2" d="M39.49,34.88s-21.23-14-13.87-22.05,16.63,12,16.63,12Z"/><path class="cls-3" d="M81.74,77.28c-.76.88-1.56,1.72-2.39,2.54-1,1-2.09,2-3.2,2.89a46.27,46.27,0,0,1-6.61,4.53c-.67.37-1.34.73-2,1.07l-.64.32-.8.37c-.35.17-.71.32-1.07.48L63.66,90l-1,.4c-.23.08-.46.17-.7.24l-.82.28L60,91.3c-.68-19.51,4.15-30.18,4.15-30.18S76.53,67.7,81.74,77.28Z"/><path class="cls-2" d="M52.77,20.19S41.6,12.93,34.83,22c-6.57,8.78-.15,18.75-.15,18.75L49.87,28.88Z"/><path class="cls-3" d="M76.15,82.71a46.63,46.63,0,0,1-60.36-1.13c-.32-4.9-.15-8.93.73-11.25,4-10.61,22.84-14.5,22.84-14.5s11.67.79,16.87,2.25c4.38,1.23,13.54,4.41,17.11,11.49C75.17,73.19,75.87,78.18,76.15,82.71Z"/><path class="cls-4" d="M39,46.21l-.47,10.44s1.74,3.08,7.83,3.86c4.53.58,6.17-.38,6.17-.38l-.39-5.31-.39-5.19L40.88,46.7Z"/><path d="M40.88,46.7a3.27,3.27,0,0,0,.25,1c2.1,5.32,8.43,6.74,11,7.1l-.39-5.19Z"/><path class="cls-4" d="M55.2,26s4.88,13.33,2.39,20.51-9.07,5.61-13,4A13.26,13.26,0,0,1,39,46.21,5.62,5.62,0,0,1,33,43.64c-2.28-3.61-.51-7.48,1.67-8.26s4.61.9,4.61.9l-1.75-3.89S47,13.71,55.2,26Z"/><path class="cls-2" d="M39.26,36.28s5.5,1.52,9.82-4.41,4.14-8.52,4.14-8.52l3.41,7.24s1.18-4.94-.4-7.9-3.46-2.5-3.46-2.5l-12.53,2.2L36.3,32Z"/><path class="cls-5" d="M40.38,66.17a4.45,4.45,0,0,1-.81-.08,2.59,2.59,0,0,1-1.7-1.22c-1.61-2.54-.28-8.19-.23-8.43a.51.51,0,0,1,.39-.37.5.5,0,0,1,.5.19c.2.27,5,6.62,14,3.45a.5.5,0,0,1,.56.16c1,1.21,3.08,4.14,2,5.32a2,2,0,0,1-1.46.64c-2.22.09-5.66-2.83-6.89-3.95C45.84,63.09,43.26,66.17,40.38,66.17Zm-2-8.53c-.3,1.67-.73,5.07.29,6.69a1.64,1.64,0,0,0,1.07.78c2.49.52,5-2.38,6-3.67A13.35,13.35,0,0,1,38.42,57.64Zm9.5,3.94c1.56,1.35,4.16,3.27,5.69,3.25a1,1,0,0,0,.75-.32c.3-.32-.58-2.09-1.84-3.74A15.29,15.29,0,0,1,47.92,61.58Z"/><path class="cls-3" d="M20.36,85.14a47.19,47.19,0,0,1-8.93-8c-.33-.38-.65-.76-1-1.15,7.84-12.11,15.67-15.3,15.67-15.3S18.36,75.67,20.36,85.14Z"/><path class="cls-5" d="M70.55,86.65l-1,.59a27.23,27.23,0,0,0-.22-5.93A16.16,16.16,0,0,0,60.83,69a.48.48,0,0,1-.25-.63.48.48,0,0,1,.63-.26c.32.14,7.64,3.41,9.06,13.11A28,28,0,0,1,70.55,86.65Z"/><path d="M54.23,42.5a.45.45,0,0,1-.16,0,.49.49,0,0,1-.31-.63c.83-2.51-1-5.29-1-5.32a.5.5,0,0,1,.14-.69.49.49,0,0,1,.69.14c.09.13,2.13,3.21,1.13,6.19A.49.49,0,0,1,54.23,42.5Z"/><path d="M38.43,42.5a.51.51,0,0,1-.37-.16l-3.69-4.08a.51.51,0,0,1,0-.71.5.5,0,0,1,.71,0l3.68,4.08a.49.49,0,0,1,0,.7A.46.46,0,0,1,38.43,42.5Z"/><path d="M34.46,41.34a.51.51,0,0,1-.5-.44.51.51,0,0,1,.44-.56L37,40a.49.49,0,0,1,.56.43.5.5,0,0,1-.43.56l-2.62.34Z"/><path d="M56.63,31.09h-.1l-1.89-.38a.5.5,0,1,1,.19-1l1.9.38a.5.5,0,0,1-.1,1Z"/><path d="M46.9,32.56a.5.5,0,0,1-.21-1L50,30.05a.5.5,0,0,1,.43.9l-3.29,1.56A.42.42,0,0,1,46.9,32.56Z"/><path d="M56.06,36.9a.5.5,0,0,1-.48-.37L54.87,34a.54.54,0,0,1,.1-.46l.8-.92a.49.49,0,0,1,.7-.06.51.51,0,0,1,.06.71l-.62.72.63,2.26a.49.49,0,0,1-.35.62Z"/><path d="M48.71,37.4a.52.52,0,0,1-.49-.37l-.7-2.52a.47.47,0,0,1,.11-.47l1.09-1.22a.5.5,0,0,1,.75.67l-.91,1,.63,2.26a.51.51,0,0,1-.35.62Z"/><path d="M52.59,45.92A5.66,5.66,0,0,1,49,44.33a.5.5,0,1,1,.72-.7s1.76,1.74,3.64,1.18a.5.5,0,0,1,.28,1A3.68,3.68,0,0,1,52.59,45.92Z"/></g></g></svg>