<svg xmlns="http://www.w3.org/2000/svg" viewBox="0 0 93.25 93.24"><defs><style>.cls-1{fill:#110828;}.cls-2{fill:#ffb700;}.cls-3{fill:#fff;}.cls-4{fill:#07cbf5;}.cls-5{fill:#fd8753;}.cls-6{fill:#e2209e;}</style></defs><g id="Layer_2" data-name="Layer 2"><g id="Layer_1-2" data-name="Layer 1"><path class="cls-1" d="M93.25,46.62a46.43,46.43,0,0,1-4.54,20.09c-.26.54-.53,1.08-.81,1.61A46.92,46.92,0,0,1,73.25,84.89c-.41.29-.82.57-1.24.84a47.08,47.08,0,0,1-7,3.75c-.22.09-.44.19-.66.27a46.76,46.76,0,0,1-32.21,1.19q-1.11-.36-2.19-.78a46,46,0,0,1-7.09-3.44c-.37-.22-.74-.44-1.1-.68-.72-.44-1.43-.92-2.12-1.41-.52-.37-1-.74-1.52-1.13a46.24,46.24,0,0,1-8.28-8.26c-.15-.18-.3-.37-.44-.56A46.62,46.62,0,1,1,93.25,46.62Z"/><path class="cls-2" d="M32.13,90.94q-1.11-.36-2.19-.78a46.46,46.46,0,0,1-10.31-5.53c-.52-.37-1-.74-1.52-1.13a46.24,46.24,0,0,1-8.28-8.26c5.64-9.73,14.47-21,25-21C46.9,54.32,39,76,32.13,90.94Z"/><path class="cls-3" d="M54.21,25a25,25,0,0,1,24.86,9.15c10.61,13,4,29-12.78,28.52S45.58,45,45.58,45Z"/><path class="cls-2" d="M73.25,84.89c-.41.29-.82.57-1.24.84a47.08,47.08,0,0,1-7,3.75c-.22.09-.44.19-.66.27a46.76,46.76,0,0,1-32.21,1.19q-1.11-.36-2.19-.78a46.46,46.46,0,0,1-10.31-5.53c-.52-.37-1-.74-1.52-1.13,1-10.79,2.32-19.89,4.21-22.28,3.52-4.45,7.65-6.08,12.51-7,2.58-.47,5.33-.73,8.3-1.1a67.66,67.66,0,0,1,14.29.06h.06A41.82,41.82,0,0,1,68.3,55.42C70.18,56.23,72,69.66,73.25,84.89Z"/><path class="cls-4" d="M35.86,44.13c-.59,2.72-2.23,4.68-3.65,4.37s-2.09-2.78-1.5-5.5,2.24-4.68,3.66-4.37S36.46,41.4,35.86,44.13Z"/><path class="cls-2" d="M87.9,68.32A46.92,46.92,0,0,1,73.25,84.89c-.41.29-.82.57-1.24.84a47.08,47.08,0,0,1-7,3.75c-.22.09-.44.19-.66.27L55.12,53.2a19.5,19.5,0,0,1,2.3,0h.06C62.74,53.45,75.94,55.44,87.9,68.32Z"/><path class="cls-3" d="M32.8,35.68a14,14,0,0,1-3-11.13c.69-4.63,2.71-6.16,2.71-6.16s-3.24-6.23,6.06-6,16.93-.59,21.08,7.42c2.44,4.71,1.47,15,1.47,15Z"/><path class="cls-5" d="M53.36,43,53.3,54.3s-2.07,3.26-8.72,3.76c-4.95.37-6.5-2.18-6.5-2.18L39.34,46l12-2.57Z"/><path d="M53.35,42.25a3.66,3.66,0,0,1-.34,1.1c-2.57,5.66-11.53,8-14.39,8.2l.72-5.6Z"/><path class="cls-5" d="M37,20.05s-6.05,14.2-3.74,22.13,9.53,6.6,13.84,5A14.41,14.41,0,0,0,53.37,43a6.11,6.11,0,0,0,6.73-2.46c2.67-3.79,1-8.09-1.36-9.06s-5.05.73-5.05.73L55.8,28S46.54,7.22,37,20.05Z"/><path class="cls-3" d="M53.69,32.16s-6.06,1.34-10.42-5.34-4-9.48-4-9.48l-4.07,7.07s-1-4.83.84-7.95,3.9-2.53,3.9-2.53L53.4,17l3.73,10.68Z"/><path d="M37.77,38.06a.49.49,0,0,1-.47-.34c-1-3,1.1-6.16,1.19-6.3a.5.5,0,0,1,.83.57s-1.91,2.86-1.07,5.42a.5.5,0,0,1-.32.63Z"/><path d="M54.39,38.83A.5.5,0,0,1,54,38l3.77-4.13a.5.5,0,0,1,.71,0,.49.49,0,0,1,0,.7l-3.77,4.14A.5.5,0,0,1,54.39,38.83Z"/><path d="M58.44,37.67h-.07l-2.66-.36a.5.5,0,0,1-.43-.56.49.49,0,0,1,.56-.43l2.66.36a.5.5,0,0,1-.06,1Z"/><path d="M34.83,26.53a.49.49,0,0,1-.49-.4.5.5,0,0,1,.39-.59l2-.38a.52.52,0,0,1,.59.4.5.5,0,0,1-.4.58l-2,.38Z"/><path d="M44.15,27.1a.47.47,0,0,1-.17,0l-3-1.13a.5.5,0,1,1,.35-.93l3,1.12a.5.5,0,0,1,.29.64A.52.52,0,0,1,44.15,27.1Z"/><path d="M34.94,32.34l-.14,0a.5.5,0,0,1-.34-.62l.66-2.31-.63-.74a.5.5,0,1,1,.76-.65l.81.95a.54.54,0,0,1,.1.46L35.42,32A.5.5,0,0,1,34.94,32.34Z"/><path d="M42.1,32.89l-.14,0a.51.51,0,0,1-.34-.62l.66-2.3-.93-1a.5.5,0,1,1,.75-.67l1.11,1.25a.49.49,0,0,1,.1.47l-.73,2.56A.5.5,0,0,1,42.1,32.89Z"/><path d="M39.83,41.75a2.11,2.11,0,0,1-1-.23.5.5,0,1,1,.47-.89c1.12.59,3.15-1.18,3.78-1.84a.5.5,0,0,1,.71,0,.49.49,0,0,1,0,.7C43.58,39.74,41.63,41.75,39.83,41.75Z"/><path class="cls-5" d="M38.35,53.71,32,54.5s.79,7.79,11.44,8.75,17.81-9.66,17.81-9.66L50.08,52.23Z"/><ellipse class="cls-4" cx="56.28" cy="44.93" rx="2.64" ry="5.05" transform="translate(-2.68 3.58) rotate(-3.56)"/><path class="cls-6" d="M28.12,67.49c-.07.11-6.56,9.81-5.27,19.23-.37-.22-.74-.44-1.1-.68-.92-9.47,5.24-18.66,5.54-19.11a.5.5,0,0,1,.7-.13A.49.49,0,0,1,28.12,67.49Z"/></g></g></svg>