<svg xmlns="http://www.w3.org/2000/svg" viewBox="0 0 93.25 93.25"><defs><style>.cls-1{fill:#110828;}.cls-2{fill:#ffb700;}.cls-3{fill:#9364ed;}.cls-4{fill:#07cbf5;}.cls-5{fill:#fd8753;}.cls-6{fill:#fff;}.cls-7{fill:#5e1dbb;}</style></defs><g id="Layer_2" data-name="Layer 2"><g id="Layer_1-2" data-name="Layer 1"><path class="cls-1" d="M93.25,46.63a46.6,46.6,0,0,1-3.21,17,44.27,44.27,0,0,1-3.29,6.7,45,45,0,0,1-3.19,4.69c-.47.62-1,1.22-1.48,1.81a46,46,0,0,1-10,8.82c-1,.65-2,1.27-3.07,1.84A45.71,45.71,0,0,1,57.36,92a46.36,46.36,0,0,1-10.74,1.25q-1.18,0-2.34-.06a46,46,0,0,1-15.9-3.66L28,89.37c-.94-.4-1.86-.84-2.77-1.31a44.9,44.9,0,0,1-4.4-2.59l-.57-.4a42.23,42.23,0,0,1-4.84-3.81.92.92,0,0,1-.14-.13q-.18-.15-.36-.33c-1.05-1-2.05-2-3-3l-.13-.15c-.7-.79-1.38-1.6-2-2.43A46.63,46.63,0,1,1,93.25,46.63Z"/><path class="cls-2" d="M57.36,92a46.36,46.36,0,0,1-10.74,1.25q-1.18,0-2.34-.06a46.28,46.28,0,0,1-19-5.13l10.5-36.77,7.08.44,13.67,1.86Z"/><path class="cls-3" d="M35.73,51.29,28,89.37c-.94-.4-1.86-.84-2.77-1.31a44.9,44.9,0,0,1-4.4-2.59l-.57-.4a42.23,42.23,0,0,1-4.84-3.81.92.92,0,0,1-.14-.13q-.18-.15-.36-.33c-1.05-1-2.05-2-3-3l-.13-.15c-.7-.79-1.38-1.6-2-2.43C14,66.65,22.55,59.7,25.33,57.28,31.09,52.27,35.73,51.29,35.73,51.29Z"/><path class="cls-4" d="M34,20.72S34.21,12.17,47,11,64,21.55,63.34,22.8a4,4,0,0,1-1.76,1.71s.31,8.55-4.87,10.1-11-1.77-11-1.77Z"/><path class="cls-5" d="M49.33,41.84V52.35s-1.9,3-8,3.52c-4.58.37-6.19-.67-6.19-.67l.64-5.32.63-5.19,11.11-2.44Z"/><path d="M47.47,42.25a3.6,3.6,0,0,1-.31,1c-2.35,5.24-8.79,6.37-11.43,6.61l.63-5.19Z"/><path class="cls-5" d="M34,20.72s-5.52,13.18-3.35,20.5,8.85,6.07,12.84,4.59a13.22,13.22,0,0,0,5.81-4,5.65,5.65,0,0,0,6.22-2.3C58,36,56.4,32,54.25,31.16s-4.67.69-4.67.69L51.51,28S42.84,8.81,34,20.72Z"/><path d="M34.88,37.43a.5.5,0,0,1-.48-.34c-.94-2.82,1-5.74,1.08-5.86a.49.49,0,0,1,.69-.14.5.5,0,0,1,.14.69s-1.74,2.65-1,5a.51.51,0,0,1-.32.64Z"/><path d="M50.26,38.06a.5.5,0,0,1-.34-.13.49.49,0,0,1,0-.7l3.47-3.85a.5.5,0,0,1,.71,0,.49.49,0,0,1,0,.7L50.63,37.9A.5.5,0,0,1,50.26,38.06Z"/><path d="M54,37h-.07l-2.46-.32a.5.5,0,0,1-.43-.56.49.49,0,0,1,.56-.43l2.46.32a.5.5,0,0,1,.44.56A.51.51,0,0,1,54,37Z"/><path d="M40.7,32.42h-.05a.5.5,0,0,1-.45-.55l.26-2.45A.5.5,0,0,1,41,29a.5.5,0,0,1,.45.55L41.2,32A.51.51,0,0,1,40.7,32.42Z"/><path d="M33.45,32h-.06a.5.5,0,0,1-.44-.56L33.26,29a.49.49,0,0,1,.55-.43.5.5,0,0,1,.44.56l-.31,2.44A.5.5,0,0,1,33.45,32Z"/><path d="M42.87,27.7a.51.51,0,0,1-.44-.27c-.59-1.09-2.16-.73-2.17-.73a.49.49,0,0,1-.6-.37.5.5,0,0,1,.37-.6c.09,0,2.33-.53,3.28,1.23a.51.51,0,0,1-.2.68A.5.5,0,0,1,42.87,27.7Z"/><path d="M32.25,27.17a.5.5,0,0,1-.33-.12.51.51,0,0,1-.05-.71c.58-.65,2-1.63,3.3-.61a.5.5,0,0,1,.08.7.49.49,0,0,1-.7.08c-.86-.68-1.89.45-1.93.49A.51.51,0,0,1,32.25,27.17Z"/><path class="cls-6" d="M51.72,32.79s-4.17-.76-5.49-3.7c-2-4.39.66-6.26.66-6.26a9,9,0,0,1-5.51-.63,6.65,6.65,0,0,1-3.58-4.06L34,20.72s-1.11-5.55,2.36-6.57,7.53,2.16,7.53,2.16L56.64,26,55.45,32S54.74,31.76,51.72,32.79Z"/><path d="M39,41.47a2,2,0,0,1-.42,0,3.64,3.64,0,0,1-2.06-1.58.5.5,0,0,1,.2-.7l4.58-2.34a.52.52,0,0,1,.44,0,.49.49,0,0,1,.28.36A4,4,0,0,1,40.45,41,2.36,2.36,0,0,1,39,41.47Zm-1.29-1.71a2.09,2.09,0,0,0,1.07.68,1.3,1.3,0,0,0,1-.28,2.93,2.93,0,0,0,1.22-2.11Z"/><path class="cls-4" d="M38.38,13.72s6.27,1.26,9.68,8.73a53.8,53.8,0,0,1,3.66,10.34l5,1.82,1.49-12L46.75,13.54S41.37,11.33,38.38,13.72Z"/><path class="cls-3" d="M86.75,70.37a45,45,0,0,1-3.19,4.69c-.47.62-1,1.22-1.48,1.81a46,46,0,0,1-10,8.82c-1,.65-2,1.27-3.07,1.84a46.36,46.36,0,0,1-22.39,5.72q-1.18,0-2.34-.06c1-16.75,5-44.7,5-44.7C61.14,48.68,73,53.11,86.75,70.37Z"/><path class="cls-7" d="M52.14,33.15a.51.51,0,0,1-.5-.43.5.5,0,0,1,.43-.56,10.55,10.55,0,0,0,5.47-2.82,18.7,18.7,0,0,0,3.25-4.42.5.5,0,1,1,.9.43A19.25,19.25,0,0,1,58.26,30a11.3,11.3,0,0,1-6.06,3.11Z"/><path class="cls-7" d="M50.65,28.31a.5.5,0,0,1-.15-1,37.56,37.56,0,0,0,7.18-3.14,11,11,0,0,1,5.14-1.86.52.52,0,0,1,.52.48.49.49,0,0,1-.47.52A10.22,10.22,0,0,0,58.23,25a37.19,37.19,0,0,1-7.42,3.26A.41.41,0,0,1,50.65,28.31Z"/><path class="cls-7" d="M48.4,22.7a.5.5,0,0,1-.31-.89,18.16,18.16,0,0,1,13.75-3.37.5.5,0,1,1-.17,1,17.43,17.43,0,0,0-13,3.17A.54.54,0,0,1,48.4,22.7Z"/><path class="cls-7" d="M43.92,16.81a.5.5,0,0,1-.41-.22.5.5,0,0,1,.12-.69,18.72,18.72,0,0,1,14.44-2.1.5.5,0,1,1-.24,1A18.08,18.08,0,0,0,44.2,16.72.47.47,0,0,1,43.92,16.81Z"/><path class="cls-6" d="M40,56.39a18.19,18.19,0,0,1-5.06-.71.51.51,0,0,1-.32-.63.5.5,0,0,1,.63-.32c.08,0,7.84,2.44,13.15-2.28a.5.5,0,1,1,.66.74A13.34,13.34,0,0,1,40,56.39Z"/></g></g></svg>