<svg xmlns="http://www.w3.org/2000/svg" viewBox="0 0 93.25 93.24"><defs><style>.cls-1{fill:#110828;}.cls-2{fill:#fff;}.cls-3{fill:#e2209e;}.cls-4{fill:#07cbf5;}.cls-5{fill:#fd8753;}.cls-6{fill:#5e1dbb;}</style></defs><g id="Layer_2" data-name="Layer 2"><g id="Layer_1-2" data-name="Layer 1"><path class="cls-1" d="M93.25,46.62a46.35,46.35,0,0,1-9.92,28.74l-.27.34A46.73,46.73,0,0,1,41.74,93c-1.05-.11-2.09-.26-3.12-.44s-2.26-.44-3.37-.72l-.64-.16c-.59-.16-1.17-.32-1.75-.5-1.18-.36-2.34-.77-3.47-1.23a46,46,0,0,1-8.46-4.42c-.71-.47-1.41-1-2.09-1.47l-.32-.23A46.09,46.09,0,0,1,14.08,80c-.58-.57-1.15-1.15-1.7-1.75A46.62,46.62,0,1,1,93.25,46.62Z"/><path class="cls-2" d="M33.94,28.46s-4.54,3.81-5,7.62l-.43,3.82a11.66,11.66,0,0,0-7.08,8.3c-2.22,8.91,3.85,12,3.85,12l47.19,5.1A14.93,14.93,0,0,0,77,52.64c-1.11-7.81-5.68-10.3-5.68-10.3a18.59,18.59,0,0,0-1.78-10.06,10.63,10.63,0,0,0-8.9-5.88Z"/><path class="cls-3" d="M83.06,75.7A46.73,46.73,0,0,1,41.74,93c-1.05-.11-2.09-.26-3.12-.44s-2.26-.44-3.37-.72l-.64-.16c-.59-.16-1.17-.32-1.75-.5-1.18-.36-2.34-.77-3.47-1.23a46,46,0,0,1-8.46-4.42c-.71-.47-1.41-1-2.09-1.47l7.78-23.62.78-2.37a6.39,6.39,0,0,1,2.67-3.41l.3-.17a3.25,3.25,0,0,1,.34-.19,6.22,6.22,0,0,1,1.52-.52c1.46-.33,3.27-.68,5.33-1l2-.28c2.13-.29,4.48-.51,6.89-.61,1.46-.07,2.92-.08,4.39,0,.65,0,1.31,0,2,.09s1.51.13,2.27.21,1.68.22,2.52.39A31.61,31.61,0,0,1,63.09,54c4.68,1.76,8.75,5.38,12.09,9.43A68.6,68.6,0,0,1,83.06,75.7Z"/><path class="cls-4" d="M52.74,49.66s3.31,1.09,4.32,2.64c1.13,1.73-1,6.29-7,9.83A33.77,33.77,0,0,1,42,65.64s-3.82-5.28-4.55-8.49,2-7.43,2-7.43Z"/><path class="cls-2" d="M35.17,34.4s-4-6.1-4-9.09,10-13.52,20.42-10.6S64.79,30.27,63.47,35.9c-3.4,14.48-16.11,10.15-16.11,10.15S27.81,43.43,35.17,34.4Z"/><path class="cls-5" d="M39.36,49.46l0,.26.83,5,.63,3.89s-.22,1,4.3.1c6.05-1.16,7.7-4,7.7-4L52,45.46l-1.8.58Z"/><path d="M39.39,49.72l.83,5C43.14,54,48.38,52,50,47.1a3.84,3.84,0,0,0,.19-1L39.4,49.65Z"/><path class="cls-5" d="M34.56,26.09s-4.1,13.67-1.17,20.72S42.83,51.9,46.64,50A13.23,13.23,0,0,0,52,45.45a5.66,5.66,0,0,0,5.94-2.94C60,38.75,58,35,55.75,34.32s-4.57,1.18-4.57,1.18l1.52-4S42.06,13.32,34.56,26.09Z"/><path d="M37.11,42.6a.49.49,0,0,1-.45-.29c-1.23-2.7.38-5.81.45-5.94a.49.49,0,0,1,.67-.21.5.5,0,0,1,.21.68s-1.45,2.81-.42,5a.51.51,0,0,1-.25.67A.52.52,0,0,1,37.11,42.6Z"/><path d="M52.46,41.6a.52.52,0,0,1-.29-.09.49.49,0,0,1-.11-.7l3-4.19a.5.5,0,1,1,.81.59l-3,4.19A.49.49,0,0,1,52.46,41.6Z"/><path d="M56.06,40.13l-2.49-.06a.5.5,0,0,1-.49-.51.51.51,0,0,1,.51-.49l2.48.06a.49.49,0,0,1,.49.51A.5.5,0,0,1,56.06,40.13Z"/><path d="M40.07,47.41a1.41,1.41,0,0,1-.45-.07c-1.11-.35-1.75-1.94-1.82-2.12a.49.49,0,0,1,.25-.63l4.85-2.33a.5.5,0,0,1,.55.07.48.48,0,0,1,.14.53c0,.13-1.06,3.21-2.61,4.25A1.59,1.59,0,0,1,40.07,47.41Zm-1.15-2.13a2.34,2.34,0,0,0,1,1.11.55.55,0,0,0,.5-.11,6.63,6.63,0,0,0,1.77-2.57Z"/><path d="M43.49,32a.52.52,0,0,1-.41-.21A1.68,1.68,0,0,0,41.93,31a2,2,0,0,0-1.35.5.5.5,0,0,1-.68-.74A3,3,0,0,1,42,30a2.65,2.65,0,0,1,1.88,1.24.51.51,0,0,1-.12.7A.52.52,0,0,1,43.49,32Z"/><path d="M33.69,32.07a.48.48,0,0,1-.26-.07.49.49,0,0,1-.16-.69,2.43,2.43,0,0,1,1.66-1.14,1.9,1.9,0,0,1,1.61.75.5.5,0,0,1-.75.67,1,1,0,0,0-.77-.43,1.55,1.55,0,0,0-.91.68A.48.48,0,0,1,33.69,32.07Z"/><path class="cls-2" d="M51.18,35.5s-6-2.17-8.6-6-2.91-5.85-2.91-5.85-.49,2.78-2.47,3.67a15.57,15.57,0,0,1-3.26,1.13l-.83,4-.31-9.17s5.22-3.71,6-3.8,10.42.38,11,.88,4.54,7.46,4.54,7.46L55,31.09Z"/><path class="cls-4" d="M52.44,50.32S46,56.41,42.2,56.44,39,53.33,39,53.33l.62,7.26,3.34,1.09,8.36-3.36L56,53.07Z"/><path class="cls-4" d="M45.61,62.05A21.73,21.73,0,0,1,49,72c.58,6.08-3,12.91-3,12.91s-5.66-6.42-6.41-11.26S41.5,61.93,41.5,61.93a55.32,55.32,0,0,0-3.2,9.41c-.63,3.57-1.51,8.16-1.51,8.16s-3.43-4.55-3.23-10,6-9,6-9Z"/><path class="cls-6" d="M44.89,63.83A16.8,16.8,0,0,1,41,63.2a.11.11,0,0,1-.08,0,.51.51,0,0,1-.25-.25c-.34-.81-2-4.91-.93-6.38A1.39,1.39,0,0,1,41.09,56a1.58,1.58,0,0,1,1.31.78c.85,1.39-.1,4.36-.57,5.61a10.31,10.31,0,0,0,3.85.36c.92-.26,1.44-3.41,1.07-5.19a.5.5,0,0,1,.39-.59.49.49,0,0,1,.59.39c.33,1.6.12,5.81-1.77,6.35A3.92,3.92,0,0,1,44.89,63.83Zm-4-6.85a.4.4,0,0,0-.35.14c-.43.6,0,2.51.57,4.17.48-1.48.84-3.28.4-4A.63.63,0,0,0,41,57Z"/><path class="cls-6" d="M44.7,72.07a1.37,1.37,0,0,1-1.09-.54c-1.34-1.67-.09-7.46.06-8.11a.49.49,0,0,1,.95-.06c.4,1.07,2.29,6.52,1.14,8.16a1.26,1.26,0,0,1-1,.55Zm-.42-6.54c-.33,2.15-.49,4.63.11,5.38a.39.39,0,0,0,.32.16.26.26,0,0,0,.23-.12C45.43,70.25,44.94,67.77,44.28,65.53Z"/><path class="cls-3" d="M32.86,91.17c-1.18-.36-2.34-.77-3.47-1.23a46,46,0,0,1-8.46-4.42c-.71-.47-1.41-1-2.09-1.47l-.32-.23A46.09,46.09,0,0,1,14.08,80c-.58-.57-1.15-1.15-1.7-1.75,2.84-9.25,7.2-15.2,10.88-18.85a23.75,23.75,0,0,1,7.45-5.11c0,.05-.15.11-.3.17s-.32.13-.34.19a24.36,24.36,0,0,0-.61,6.08C29.43,68.52,31.08,80.5,32.86,91.17Z"/><path d="M34.39,37.16h-.1a.5.5,0,0,1-.39-.59l.49-2.39-.7-.7a.5.5,0,0,1,0-.71.51.51,0,0,1,.71,0l.88.9a.49.49,0,0,1,.14.45l-.54,2.65A.5.5,0,0,1,34.39,37.16Z"/><path d="M42.67,37.08h-.1a.51.51,0,0,1-.39-.59l.49-2.38-1-1a.5.5,0,0,1,.7-.72l1.21,1.17a.49.49,0,0,1,.14.46l-.54,2.65A.49.49,0,0,1,42.67,37.08Z"/></g></g></svg>