<svg xmlns="http://www.w3.org/2000/svg" viewBox="0 0 93.24 93.25"><defs><style>.cls-1{fill:#110828;}.cls-2{fill:#ffb700;}.cls-3{fill:#fd8753;}.cls-4{fill:#5e1dbb;}.cls-5{fill:#e29d03;}.cls-6{fill:#fff;}</style></defs><g id="Layer_2" data-name="Layer 2"><g id="Layer_1-2" data-name="Layer 1"><path class="cls-1" d="M87.53,69c-.49.89-1,1.77-1.56,2.62l-.24.37c-.14.23-.29.45-.44.68-.59.87-1.2,1.71-1.85,2.53a48.19,48.19,0,0,1-5.62,6.07c-.46.42-.94.83-1.43,1.22-.21.19-.43.37-.65.54-.38.32-.78.62-1.19.92l-.56.41-.69.5c-.23.16-.45.31-.69.46l-.19.13-.21.15-.21.14-.29.18A46.22,46.22,0,0,1,67,88.54l-1.24.59a46.06,46.06,0,0,1-9.15,3c-.4.1-.8.18-1.21.26s-.67.13-1,.18c-.7.12-1.41.22-2.12.31l-.32,0c-.73.08-1.48.15-2.23.19h-.1l-.83.06a47,47,0,0,1-11-.77A44.57,44.57,0,0,1,29.52,90,44.92,44.92,0,0,1,23.38,87c-.73-.42-1.45-.86-2.16-1.33-.25-.16-.5-.32-.74-.49-.58-.39-1.16-.8-1.72-1.23a46.07,46.07,0,0,1-5.84-5.16c-.4-.42-.79-.84-1.17-1.28s-.66-.75-1-1.13c-.09-.09-.16-.19-.24-.28l-.49-.6a45.41,45.41,0,0,1-3.45-5,2.39,2.39,0,0,1-.13-.21c-.44-.72-.84-1.47-1.23-2.21A46.62,46.62,0,1,1,93.18,44.4,46.45,46.45,0,0,1,87.53,69Z"/><path class="cls-2" d="M76.39,82.49c-.21.19-.43.37-.65.54-.38.32-.78.62-1.19.92l-.56.41-.69.5-.88.59-.21.15-.21.14a47.19,47.19,0,0,1-5,2.8l-1.24.59a46.06,46.06,0,0,1-9.15,3c-.4.1-.8.18-1.21.26-1,.2-2.07.36-3.13.49l-.32,0c-.73.08-1.48.15-2.23.19-.31,0-.62,0-.93.07a47,47,0,0,1-11-.77A44.57,44.57,0,0,1,29.52,90,44.92,44.92,0,0,1,23.38,87c-.73-.42-1.45-.86-2.16-1.33S19.56,84.6,18.76,84a46.07,46.07,0,0,1-5.84-5.16c-.4-.42-.79-.84-1.17-1.28s-.66-.75-1-1.13c.63-7.18,6.53-13.85,7.68-15.34,4.17-5.44,16.46-8.95,28.69-9.18,0,0,16.58.59,23.85,7.65C74,62.46,75.61,71.48,76.39,82.49Z"/><path class="cls-2" d="M20.48,85.22c-.58-.39-1.16-.8-1.72-1.23a46.07,46.07,0,0,1-5.84-5.16c-.4-.42-.79-.84-1.17-1.28s-.66-.75-1-1.13c-.09-.09-.16-.19-.24-.28l-.49-.6a45.41,45.41,0,0,1-3.45-5A117.21,117.21,0,0,1,19.83,59.61Z"/><path class="cls-2" d="M85.73,72c-.14.23-.29.45-.44.68-.59.87-1.2,1.71-1.85,2.53a48.19,48.19,0,0,1-5.62,6.07c-.67.6-1.36,1.19-2.08,1.76-.38.32-.78.62-1.19.92l-.56.41-.69.5-.88.59-.21.15-.21.14a47.19,47.19,0,0,1-5,2.8l-1.24.59-4.37-3.26L71,59.55Z"/><path class="cls-3" d="M37.62,43.69l-.32,9.63s.79,2.88,7.12,3.61a8.17,8.17,0,0,0,7.13-2.4l-.17-2.07-.47-5.38-11.38-2.9Z"/><path d="M39.53,44.18a3.67,3.67,0,0,0,.28,1c2.25,5.5,8.84,6.89,11.57,7.23l-.47-5.38Z"/><path class="cls-3" d="M54.15,22.44s5.24,13.79,2.74,21.27S47.54,49.66,43.48,48a13.75,13.75,0,0,1-5.86-4.3,5.83,5.83,0,0,1-6.33-2.6c-2.41-3.72-.62-7.76,1.64-8.6s4.79.88,4.79.88l-1.86-4S45.48,9.83,54.15,22.44Z"/><path d="M52.71,39.63a.5.5,0,0,1-.47-.67c.9-2.41-.79-5.17-.81-5.2a.5.5,0,1,1,.85-.53c.08.13,2,3.21.9,6.07A.48.48,0,0,1,52.71,39.63Z"/><path d="M36.82,39.74a.49.49,0,0,1-.38-.18L33,35.47a.5.5,0,0,1,.76-.64l3.45,4.09a.5.5,0,0,1-.38.82Z"/><path d="M33,38.48a.5.5,0,0,1,0-1l2.56-.25a.49.49,0,0,1,.54.45.5.5,0,0,1-.45.55L33,38.48Z"/><path d="M46.88,34.26a.51.51,0,0,1-.5-.47l-.18-2.53a.5.5,0,0,1,.46-.54.49.49,0,0,1,.53.47l.19,2.53a.5.5,0,0,1-.47.53Z"/><path d="M54.38,34.07a.49.49,0,0,1-.5-.45l-.23-2.53a.49.49,0,0,1,.45-.54.48.48,0,0,1,.54.45l.23,2.53a.49.49,0,0,1-.45.54Z"/><path d="M45.41,29.56a.51.51,0,0,1-.42-.77c1.09-1.74,3.35-1.07,3.44-1a.49.49,0,0,1,.33.62.5.5,0,0,1-.62.33c-.06,0-1.62-.47-2.3.62A.52.52,0,0,1,45.41,29.56Z"/><path d="M55.2,29.08a.52.52,0,0,1-.42-.22,1.77,1.77,0,0,0-1-.73,1,1,0,0,0-.79.26.51.51,0,0,1-.71-.09.5.5,0,0,1,.09-.7,2,2,0,0,1,1.57-.46,2.83,2.83,0,0,1,1.7,1.16.5.5,0,0,1-.41.78Z"/><path class="cls-4" d="M54.15,22.44l-.93-1.23a10.29,10.29,0,0,1-3.37,1.4,35.13,35.13,0,0,1-7.88.94s.77,1,.78,4.76S39,34.36,39,34.36a12.2,12.2,0,0,0-3.59-1.64,6.62,6.62,0,0,0-1.15-.18,3.12,3.12,0,0,0-3,1.31s-5.57-8,.14-14.22c4-4.33,9.63-4.34,12.64-3.94a15.09,15.09,0,0,1,2,.38l.11,0s8.86-2.55,10.42-1.29S55.23,22.44,54.15,22.44Z"/><path d="M49.82,43.62a2.93,2.93,0,0,1-1-.17,1.85,1.85,0,0,1-1.1-1,2.38,2.38,0,0,1,0-1.71A.48.48,0,0,1,48,40.5a.53.53,0,0,1,.39,0L51.83,42a.5.5,0,0,1,.12.84A3.63,3.63,0,0,1,49.82,43.62Zm-1.25-1.95a1,1,0,0,0,.08.41.84.84,0,0,0,.52.42,2,2,0,0,0,1.31,0Z"/><path class="cls-5" d="M54.43,92.58c-.7.12-1.41.22-2.12.31l-.32,0c-.73.08-1.48.15-2.23.19h-.1L44.58,57.38h3.49Z"/><path class="cls-6" d="M51.59,52.14s4.62,11.14,3.42,11-8.8-5.59-8.8-5.59-4.48,6.82-6.15,7-2.78-11.7-2.78-11.7,1.43,3.32,7.7,3.59S51.59,52.14,51.59,52.14Z"/><path class="cls-6" d="M72.61,85.32l-.19.13-.21.15-.21.14-.29.18-4.49-17a.52.52,0,0,1,.37-.62.5.5,0,0,1,.63.36Z"/></g></g></svg>