<svg xmlns="http://www.w3.org/2000/svg" viewBox="0 0 93.24 93.24"><defs><style>.cls-1{fill:#110828;}.cls-2{fill:#9364ed;}.cls-3{fill:#fff;}.cls-4{fill:#fd8753;}.cls-5{fill:#e2209e;}</style></defs><g id="Layer_2" data-name="Layer 2"><g id="Layer_1-2" data-name="Layer 1"><path class="cls-1" d="M93.24,46.62A46.51,46.51,0,0,1,77.58,81.46l-.19.17c-.38.34-.78.67-1.17,1-.75.63-1.52,1.23-2.32,1.79-1,.72-2,1.39-3,2-.82.5-1.65,1-2.5,1.43l-.73.37c-.37.18-.73.37-1.1.54A46.7,46.7,0,0,1,39,92.62a45,45,0,0,1-5.2-1.15A46.31,46.31,0,0,1,19,84.17c-.17-.12-.34-.24-.5-.37-1.09-.83-2.14-1.71-3.16-2.63a46,46,0,0,1-4.77-5l-.63-.79c-.26-.33-.51-.66-.75-1l-.07-.09A46.62,46.62,0,1,1,93.24,46.62Z"/><path class="cls-2" d="M77.39,81.63c-.38.34-.78.67-1.17,1-.75.63-1.52,1.23-2.32,1.79-1,.72-2,1.39-3,2-.82.5-1.65,1-2.5,1.43l-.73.37c-.37.18-.73.37-1.1.54A46.7,46.7,0,0,1,39,92.62a45,45,0,0,1-5.2-1.15A46.31,46.31,0,0,1,19,84.17c-.17-.12-.34-.24-.5-.37-1.09-.83-2.14-1.71-3.16-2.63a46,46,0,0,1-4.77-5l-.63-.79c-.26-.33-.51-.66-.75-1A37,37,0,0,1,24.91,61.66a31.16,31.16,0,0,1,7.53-2l.48-.05c.24,0,.49-.06.73-.08h.05l.62,0,.91-.05c.67-.06,1.36-.11,2-.13,18.59-.72,28.49,6.66,29.06,7.1a.34.34,0,0,1,.12.12c.19.2.63.69,1.29,1.44A90.71,90.71,0,0,1,77.39,81.63Z"/><path class="cls-3" d="M39.72,37.18s3.81-.94,5.6-3.13,2.08-7.63,2.08-7.63,6.9,3.6,8.72,3.2,5.37-8.53,3-12-7.24.84-7.24.84a5,5,0,0,0-6.29-3.85c-6.22,1.37-7.83,7.69-7.83,7.69s-.42-6.85-4.75-3.84-2.77,10.86-2.77,10.86-3.46,1.5-2.77,4.77,5.37,6.4,5.37,6.4Z"/><path class="cls-4" d="M39.1,47l-.9,10.34s1.67,3.13,7.88,4.13c4.64.75,6.36-.13,6.36-.13l-.19-5.29-.19-5.16L41,47.58Z"/><path d="M41,47.58a3.24,3.24,0,0,0,.22,1c1.94,5.35,8.39,7,11.06,7.46l-.19-5.16Z"/><path class="cls-4" d="M56.51,27.55S61,41,58.15,48s-9.54,5.23-13.47,3.43A13.39,13.39,0,0,1,39.1,47,5.88,5.88,0,0,1,33,44.24c-2.19-3.67-.21-7.45,2.06-8.14s4.69,1.08,4.69,1.08l-1.64-3.93S48.58,15.09,56.51,27.55Z"/><path d="M38.87,42.82a.51.51,0,0,1-.32-.12L34,39a.5.5,0,0,1,.63-.77l4.53,3.74a.52.52,0,0,1,.07.71A.5.5,0,0,1,38.87,42.82Z"/><path d="M47.19,33.24a.52.52,0,0,1-.35-.14.5.5,0,0,1,0-.71,3.5,3.5,0,0,1,4.39-.72.5.5,0,0,1-.54.85,2.46,2.46,0,0,0-3.12.56A.48.48,0,0,1,47.19,33.24Z"/><path d="M57.53,32.72a.49.49,0,0,1-.34-.14,2.13,2.13,0,0,0-2.27-.41.51.51,0,0,1-.67-.25.51.51,0,0,1,.25-.66,3.13,3.13,0,0,1,3.37.59.5.5,0,0,1-.34.87Z"/><path d="M54,42.4a.46.46,0,0,1-.19,0,.5.5,0,0,1-.27-.65c1.4-3.44-.2-4.69-.27-4.74a.5.5,0,0,1,.58-.81c.1.07,2.33,1.7.62,5.93A.51.51,0,0,1,54,42.4Z"/><path d="M57.05,37.68a.49.49,0,0,1-.49-.41l-.47-2.42a.5.5,0,0,1,.4-.59.51.51,0,0,1,.59.4l.46,2.42a.5.5,0,0,1-.4.59Z"/><path d="M49.29,37.68a.51.51,0,0,1-.49-.41l-.46-2.42a.5.5,0,0,1,.4-.59.49.49,0,0,1,.58.4l.46,2.42a.49.49,0,0,1-.39.59Z"/><path d="M51.85,46.3A4.13,4.13,0,0,1,48,43.77a.49.49,0,0,1,.29-.64.5.5,0,0,1,.64.28,3.17,3.17,0,0,0,2.89,1.89.47.47,0,0,1,.5.5.5.5,0,0,1-.49.5Z"/><path class="cls-3" d="M39.72,37.18s4.09-.71,5.6-4a14.5,14.5,0,0,0,1.29-6.36,6.92,6.92,0,0,0,5.64,1.89c3.58-.38,4.57-4.06,4.57-4.06l-3.28-3.84S40.06,23.6,39.72,23.18s-5.24,8.33-5.24,8.33Z"/><path class="cls-2" d="M66.54,88.78A46.7,46.7,0,0,1,39,92.62a45,45,0,0,1-5.2-1.15A46.31,46.31,0,0,1,19,84.17c1.86-11.23,3.82-20.44,5.34-21.48A11.13,11.13,0,0,1,25.45,62a22,22,0,0,1,6.82-1.77l.43-.05.66-.07.61,0,.82,0C35.9,60,36.6,60,36.6,60a.42.42,0,0,1,0-.07c0-.64.49-5.64,1.85-5.53s4.94,2.53,8.64,2.83a38.72,38.72,0,0,0,6.43,0c.75,0,.9,4,.9,4a25.1,25.1,0,0,1,8.49,5.2.38.38,0,0,1,.11.11c.17.18.57.62,1.16,1.3a11.1,11.1,0,0,1,1.17,1.8C66.38,71.57,66.64,79.42,66.54,88.78Z"/><path class="cls-3" d="M42.74,62.77h-.08a20.52,20.52,0,0,1-6.3-2.32.5.5,0,1,1,.5-.86,20.45,20.45,0,0,0,6,2.2.49.49,0,0,1,.41.57A.5.5,0,0,1,42.74,62.77Z"/><path d="M34.48,42.73a.5.5,0,0,1-.44-.27.49.49,0,0,1,.21-.67l2.6-1.39a.49.49,0,0,1,.67.2.5.5,0,0,1-.2.68l-2.6,1.39A.53.53,0,0,1,34.48,42.73Z"/><path class="cls-5" d="M49.85,40.5h-2.3a2.88,2.88,0,0,1-2.87-2.87V35.24a1.38,1.38,0,0,1,1.37-1.38h5.3a1.38,1.38,0,0,1,1.37,1.38v2.39A2.88,2.88,0,0,1,49.85,40.5Zm-3.8-5.64a.38.38,0,0,0-.37.38v2.39a1.87,1.87,0,0,0,1.87,1.87h2.3a1.87,1.87,0,0,0,1.87-1.87V35.24a.38.38,0,0,0-.37-.38Z"/><path class="cls-5" d="M58.81,40.62H57.24A2.67,2.67,0,0,1,54.57,38V35.28a1.3,1.3,0,0,1,1.3-1.3h4.3a1.3,1.3,0,0,1,1.3,1.3V38A2.67,2.67,0,0,1,58.81,40.62ZM55.87,35a.3.3,0,0,0-.3.3V38a1.67,1.67,0,0,0,1.67,1.67h1.57A1.66,1.66,0,0,0,60.47,38V35.28a.3.3,0,0,0-.3-.3Z"/><path class="cls-5" d="M51.44,37.68a.49.49,0,0,1-.44-.27.51.51,0,0,1,.21-.68,5.28,5.28,0,0,1,4-.2.5.5,0,0,1-.38.92,4.29,4.29,0,0,0-3.21.17A.46.46,0,0,1,51.44,37.68Z"/><path class="cls-5" d="M35.77,36.47a.5.5,0,0,1-.18-1,12.67,12.67,0,0,1,9.81,0,.5.5,0,1,1-.44.89,11.9,11.9,0,0,0-9,0A.65.65,0,0,1,35.77,36.47Z"/></g></g></svg>