<svg xmlns="http://www.w3.org/2000/svg" viewBox="0 0 93.25 93.24"><defs><style>.cls-1{fill:#110828;}.cls-2{fill:#ffb700;}.cls-3{fill:#fff;}.cls-4{fill:#fd8753;}.cls-5{fill:#e2209e;}</style></defs><g id="Layer_2" data-name="Layer 2"><g id="Layer_1-2" data-name="Layer 1"><path class="cls-1" d="M93.25,46.62A46.58,46.58,0,0,1,59.17,91.53c-1,.27-1.92.51-2.9.71-.63.14-1.27.26-1.91.36-.44.08-.88.14-1.33.2q-1.56.23-3.15.33c-.52,0-1,.06-1.47.07s-1.18,0-1.78,0c-.41,0-.82,0-1.23,0s-.7,0-1,0c-1.27-.06-2.54-.18-3.79-.34l-.85-.12-1.09-.18c-1.36-.24-2.69-.53-4-.88a44.32,44.32,0,0,1-5.22-1.73,46.65,46.65,0,0,1-22-18.08c-.61-1-1.19-1.93-1.74-2.93A46.63,46.63,0,1,1,93.25,46.62Z"/><path class="cls-2" d="M59.17,91.53c-1,.27-1.92.51-2.9.71-.63.14-1.27.26-1.91.36-.44.08-.88.14-1.33.2q-1.56.23-3.15.33c-.52,0-1,.06-1.47.07s-1.18,0-1.78,0c-.41,0-.82,0-1.23,0s-.7,0-1,0c-1.27-.06-2.54-.18-3.79-.34l-.85-.12-1.09-.18c-1.36-.24-2.69-.53-4-.88a44.32,44.32,0,0,1-5.22-1.73L32.7,56.61l6-1.42,12-2.84,3.39,1,3.79,1.12Z"/><path class="cls-3" d="M35.42,22.81s-6.85-8.44-5-9.56,3.61.59,3.61.59,14-2.2,19-.75,8.51,9.78,8.51,9.78,2.55-.24,3.63,3.25S58.79,46.73,54,45.84,35.42,22.81,35.42,22.81Z"/><path class="cls-4" d="M53.93,43.08l.24,11.65s-2,3.4-8.85,4.09c-5.07.51-6.87-.6-6.87-.6L39,52.3l.59-5.77,12.25-3Z"/><path d="M51.87,43.58a3.8,3.8,0,0,1-.31,1.13C49.07,50.58,42,52,39,52.3l.59-5.77Z"/><path class="cls-4" d="M36.48,20s-5.82,14.74-3.25,22.81,10,6.52,14.35,4.78a14.64,14.64,0,0,0,6.35-4.53,6.27,6.27,0,0,0,6.84-2.7c2.64-4,.77-8.33-1.63-9.26S54,32,54,32L56,27.7S46,6.6,36.48,20Z"/><path class="cls-3" d="M36.48,20S41,18.19,43,19.79,47.17,34.9,54,32s3.29-11.56,3.29-11.56S40.14,5.78,36.48,20Z"/><path class="cls-5" d="M39,52.31s0,.12,0,.35l0,.48,0,.28c-.05.46-.12,1-.19,1.77-.68,6.17-2.35,21.31-4.12,36.48a44.32,44.32,0,0,1-5.22-1.73,46.65,46.65,0,0,1-22-18.08A50,50,0,0,1,22.05,57.74c9.24-5.31,16.63-5.43,17-5.43Z"/><path class="cls-3" d="M43.87,59.42a21.49,21.49,0,0,1-5.56-.72.5.5,0,0,1-.35-.62.51.51,0,0,1,.62-.34c.1,0,10,2.8,15.21-3.33a.49.49,0,0,1,.7-.06.51.51,0,0,1,.06.71C51.55,58.58,47.28,59.42,43.87,59.42Z"/><path class="cls-5" d="M89.78,64.3A46.72,46.72,0,0,1,59.17,91.53c-1,.27-1.92.51-2.9.71C54.85,76.87,54.08,50.4,54.08,50.4S74.3,48.79,89.78,64.3Z"/><path d="M54.49,38.5a.49.49,0,0,1-.34-.14.5.5,0,0,1,0-.71l3.68-3.8a.48.48,0,0,1,.7,0,.49.49,0,0,1,0,.7l-3.68,3.81A.49.49,0,0,1,54.49,38.5Z"/><path d="M58.17,38.46a.51.51,0,0,1-.34-.13L56,36.61a.5.5,0,0,1,.68-.74l1.87,1.72a.48.48,0,0,1,0,.7A.48.48,0,0,1,58.17,38.46Z"/><path d="M35.52,26.64a.51.51,0,0,1-.4-.8c0-.05,1-1.29,3.4-.95a.5.5,0,0,1-.15,1c-1.77-.26-2.43.53-2.46.57A.49.49,0,0,1,35.52,26.64Z"/><path d="M46.5,26.78a.47.47,0,0,1-.32-.12A3.26,3.26,0,0,0,43.39,26a.5.5,0,0,1-.26-1,4.32,4.32,0,0,1,3.69.87.51.51,0,0,1,.06.71A.53.53,0,0,1,46.5,26.78Z"/><path d="M36,32.45a.52.52,0,0,1-.5-.54l.22-2.72a.5.5,0,0,1,.54-.46.51.51,0,0,1,.46.54L36.5,32A.5.5,0,0,1,36,32.45Z"/><path d="M44,32.78a.51.51,0,0,1-.5-.54l.22-2.72a.5.5,0,0,1,.54-.46.52.52,0,0,1,.46.54l-.22,2.72A.51.51,0,0,1,44,32.78Z"/><path d="M38,38.92a.52.52,0,0,1-.46-.29,6.88,6.88,0,0,1,1-7,.5.5,0,1,1,.77.65,5.85,5.85,0,0,0-.81,5.95.5.5,0,0,1-.26.66A.45.45,0,0,1,38,38.92Z"/><path d="M41.13,41.36a.5.5,0,0,1,0-1,2.68,2.68,0,0,0,2.38-1.48.5.5,0,1,1,.92.38A3.67,3.67,0,0,1,41.13,41.36Z"/></g></g></svg>