<svg xmlns="http://www.w3.org/2000/svg" viewBox="0 0 93.25 93.24"><defs><style>.cls-1{fill:#110828;}.cls-2{fill:#e2209e;}.cls-3{fill:#5e1dbb;}.cls-4{fill:#fd8753;}.cls-5{fill:#fff;}.cls-6{fill:#ffb700;}</style></defs><g id="Layer_2" data-name="Layer 2"><g id="Layer_1-2" data-name="Layer 1"><path class="cls-1" d="M93.25,46.62a47.78,47.78,0,0,1-.49,6.81c-.11.74-.24,1.46-.37,2.18,0,.21-.09.43-.14.64-.14.73-.31,1.44-.51,2.15a46,46,0,0,1-4.45,11.05c-.54,1-1.12,1.91-1.73,2.83a43.9,43.9,0,0,1-3.07,4.11c-.09.12-.18.23-.28.34-.52.62-1.06,1.22-1.61,1.81a46.43,46.43,0,0,1-7.68,6.58,44.77,44.77,0,0,1-6.28,3.6c-.12.07-.25.12-.37.18l-.2.1a42.74,42.74,0,0,1-4.2,1.68l-1.2.4a43.89,43.89,0,0,1-4.61,1.2c-.56.12-1.13.22-1.7.32a46.88,46.88,0,0,1-7.73.64,46.35,46.35,0,0,1-23.42-6.3c-.9-.51-1.77-1.06-2.62-1.63l-.78-.55-.34-.24c-.48-.34-.95-.7-1.41-1.06-.12-.09-.24-.18-.35-.28s-.36-.28-.53-.42l-.12-.1a46.61,46.61,0,0,1-4-3.69c-.39-.42-.79-.84-1.17-1.27Q10.4,76,9.06,74.23A46.62,46.62,0,1,1,93.25,46.62Z"/><path class="cls-2" d="M25.21,60.51l-.33,1.77-4.29,23-.78-.55-.34-.24c-.48-.34-.95-.7-1.41-1.06-.12-.09-.24-.18-.35-.28s-.36-.28-.53-.42l-.12-.1a46.61,46.61,0,0,1-4-3.69A85.75,85.75,0,0,1,25.18,60.55Z"/><path class="cls-3" d="M91.74,58.4a46,46,0,0,1-4.45,11.05c-.54,1-1.12,1.91-1.73,2.83a45.4,45.4,0,0,1-3.35,4.45c-.52.62-1.06,1.22-1.61,1.81a46.43,46.43,0,0,1-7.68,6.58,44.88,44.88,0,0,1-6.65,3.78c-1.48-.33-3-.74-4.44-1.18-1.76-.54-3.51-1.14-5.23-1.78-2.51-.93-4.94-2-7.28-3a140.46,140.46,0,0,1-20.8-11.85,36.1,36.1,0,0,1-1.68-4.23,45.74,45.74,0,0,1-1.3-4.68c0-.17-.08-.36-.11-.54a.42.42,0,0,0,0-.06c-.07-.34-.14-.69-.2-1.05a39.53,39.53,0,0,1-.55-10.78c.33-3.68,2.79-8.51,5.26-13.86.75-1.67,1.5-3.35,2.2-5.08.46-1.14.89-2.3,1.28-3.47A34.37,34.37,0,0,0,35,20.49a15.25,15.25,0,0,0,.15-1.62,21.08,21.08,0,0,0-.05-3.18,15.35,15.35,0,0,1,16.94.53,11.8,11.8,0,0,1,4.45,5.24,22.48,22.48,0,0,1,1.32,6.06c.36,2.87.8,5.38,3.67,6.84,6.52,3.35,12.76,7.29,12.5,14s3.46,14.52,8.76,10.82C85.16,57.48,88.52,57.33,91.74,58.4Z"/><path class="cls-2" d="M61.87,90.68l-1.2.4a43.89,43.89,0,0,1-4.61,1.2c-.56.12-1.13.22-1.7.32a46.88,46.88,0,0,1-7.73.64,46.35,46.35,0,0,1-23.42-6.3c-.9-.51-1.77-1.06-2.62-1.63l-.78-.55-.34-.24c-.48-.34-.95-.7-1.41-1.06-.12-.09-.24-.18-.35-.28s0-.06,0-.09.05-.27.07-.41c.27-1.6.58-3.17.92-4.71,0-.07,0-.13,0-.19a52.25,52.25,0,0,1,4.07-12,24.53,24.53,0,0,1,1.31-2.32c.24-.4.49-.77.75-1.13s.35-.49.53-.72l.32-.4a15.69,15.69,0,0,1,1.61-1.72c.72-.68,1.44-1.28,2.17-1.85,0,0,.08,0,.09-.05a25.84,25.84,0,0,1,7-3.85A28.05,28.05,0,0,1,51,52.57c.25,0,.49.08.72.14a35.06,35.06,0,0,1,4.49,1.17,30,30,0,0,1,5.27,2.25s.4,31.59.4,31.59Z"/><path class="cls-3" d="M92.25,56.25c-.14.73-.31,1.44-.51,2.15a46,46,0,0,1-4.45,11.05c-.54,1-1.12,1.91-1.73,2.83-2.46-1.18-5.11-2.57-7.62-4-6.32-3.45-11.82-6.88-11.82-6.88L64,57.26,55.81,40.85l-2.09-4.17-.65-1.32L51.13,31.5l-.38-.76-.2-.4-1.5-3,1.34-1.05,1.3-1,4.82-3.81a15.63,15.63,0,0,0,1.32,6.06,7.58,7.58,0,0,0,4.91,4.41c5,1.38,9.46,1.7,12.34,8.21s-1,10.94,4.4,14.45C84.29,57.75,86.32,54.25,92.25,56.25Z"/><path class="cls-4" d="M50.25,42.68l.78,11s-1.75,3.3-8.13,4.27c-4.75.73-6.44-1.61-6.44-1.61l.48-9.68,11.4-3.37Z"/><path d="M48.34,43.25a3.73,3.73,0,0,1-.25,1.08C46,50,39.41,51.64,36.67,52.08l.27-5.46Z"/><path class="cls-4" d="M32.71,21.81s-4.77,14.16-2,21.63,9.69,5.66,13.74,3.82a14,14,0,0,0,5.76-4.58,5.9,5.9,0,0,0,6.31-2.87c2.29-3.85.32-7.88-2-8.64s-4.82,1.08-4.82,1.08l1.74-4.15S41,8.72,32.71,21.81Z"/><path class="cls-3" d="M49.75,32.25S44,34,39.31,27.87,34.72,19,34.72,19l-3.4,7.12s-1.36-4.58.22-7.73,3.58-2.73,3.58-2.73l13.23,2,4.4,10Z"/><path d="M37.38,42.71a1.67,1.67,0,0,1-.34,0,.5.5,0,0,1,.15-1,3.63,3.63,0,0,0,3.22-1.83.5.5,0,0,1,.69-.13.51.51,0,0,1,.13.7A4.71,4.71,0,0,1,37.38,42.71Z"/><path d="M34.8,39.15a.51.51,0,0,1-.46-.31c-1.18-2.86.61-6,.68-6.18a.51.51,0,0,1,.69-.18.49.49,0,0,1,.18.68s-1.62,2.9-.62,5.3a.51.51,0,0,1-.27.65A.48.48,0,0,1,34.8,39.15Z"/><path d="M37.76,32.57a.5.5,0,0,1-.4-.79,3,3,0,0,1,2.08-1.18,2.5,2.5,0,0,1,1.92,1.06.51.51,0,0,1-.09.71.5.5,0,0,1-.7-.09,1.49,1.49,0,0,0-1.1-.68,1.94,1.94,0,0,0-1.31.78A.5.5,0,0,1,37.76,32.57Z"/><path d="M33.26,32.58a.51.51,0,0,1-.47-.32c-.07-.18-.36-.71-.73-.78s-.73.28-1,.57a.5.5,0,1,1-.73-.67,2.11,2.11,0,0,1,1.92-.88,2.28,2.28,0,0,1,1.47,1.39.5.5,0,0,1-.28.65A.39.39,0,0,1,33.26,32.58Z"/><path d="M40.29,28.51A.48.48,0,0,1,40,28.4a2.16,2.16,0,0,0-1.6-.69.72.72,0,0,0-.46.36.5.5,0,0,1-.91-.41,1.71,1.71,0,0,1,1.12-.92,3,3,0,0,1,2.49.89.49.49,0,0,1,.06.7A.48.48,0,0,1,40.29,28.51Z"/><path d="M31.08,28.36a.53.53,0,0,1-.3-.09.51.51,0,0,1-.11-.7c.41-.57,1.63-1.34,3.31-.22a.5.5,0,0,1-.55.84c-1.32-.88-1.92-.07-1.95,0A.49.49,0,0,1,31.08,28.36Z"/><path d="M50.89,38.65a.5.5,0,0,1-.31-.1.52.52,0,0,1-.08-.71l3.33-4.27a.5.5,0,0,1,.79.62l-3.33,4.27A.5.5,0,0,1,50.89,38.65Z"/><path d="M54.71,37.23l-2.62-.15a.49.49,0,0,1-.47-.52.48.48,0,0,1,.52-.47l2.6.14a.5.5,0,0,1,.47.53A.49.49,0,0,1,54.71,37.23Z"/><path class="cls-5" d="M66.64,88.72c-.12.07-.25.12-.37.18l-.2.1a42.74,42.74,0,0,1-4.2,1.68l-1.2.4a43.89,43.89,0,0,1-4.61,1.2c-.56.12-1.13.22-1.7.32a46.88,46.88,0,0,1-7.73.64,46.35,46.35,0,0,1-23.42-6.3c-.9-.51-1.77-1.06-2.62-1.63l-.78-.55-.34-.24c-.48-.34-.95-.7-1.41-1.06,1.6-5.59,4.5-15.24,6.07-20a23.17,23.17,0,0,1,1.05-2.86l0,0,1.3-.87a15,15,0,0,1,3-2s.08,0,.09-.05-5,26.82-5,26.82l24.7-1.44,1.19-.07s.68-6,2.26-13.74c2-9.57,3.41-15.23,3.41-15.23,2.36-.06,5,2,5.27,2.25C61.45,56.14,66.64,88.72,66.64,88.72Z"/><path class="cls-2" d="M82.49,76.39c-.09.12-.18.23-.28.34-.52.62-1.06,1.22-1.61,1.81a46.43,46.43,0,0,1-7.68,6.58,44.77,44.77,0,0,1-6.28,3.6c-.12.07-.25.12-.37.18l-.2.1a42.74,42.74,0,0,1-4.2,1.68l-1.2.4a43.89,43.89,0,0,1-4.61,1.2l1.72-15c.36-4.46,3.67-21.14,3.67-21.14A27.37,27.37,0,0,1,64,57.26,40.22,40.22,0,0,1,77.93,68.32,30.87,30.87,0,0,1,82.49,76.39Z"/><path class="cls-6" d="M41.22,58.51c-3.78,0-5.1-1.83-5.17-1.93a.5.5,0,0,1,.82-.57c0,.05,1.77,2.3,7.18,1.18s7.14-4.65,7.16-4.69a.5.5,0,0,1,.66-.25.49.49,0,0,1,.25.65c-.07.17-1.8,4-7.87,5.27A14.91,14.91,0,0,1,41.22,58.51Z"/></g></g></svg>