<svg xmlns="http://www.w3.org/2000/svg" viewBox="0 0 93.25 93.25"><defs><style>.cls-1{fill:#110828;}.cls-2{fill:#5e1dbb;}.cls-3{fill:#fff;}.cls-4{fill:#fd8753;}.cls-5{fill:#ffb700;}</style></defs><g id="Layer_2" data-name="Layer 2"><g id="Layer_1-2" data-name="Layer 1"><path class="cls-1" d="M93.25,46.63a46.32,46.32,0,0,1-5.41,21.81c-.26.5-.54,1-.82,1.48A46.67,46.67,0,0,1,33,91.23c-.88-.27-1.76-.57-2.62-.89a44.28,44.28,0,0,1-6.76-3.16l-.55-.31A46.17,46.17,0,0,1,10.93,76.61c-.35-.4-.68-.81-1-1.23A46.63,46.63,0,1,1,93.25,46.63Z"/><path class="cls-2" d="M63.41,74.39,33,91.23c-.88-.27-1.76-.57-2.62-.89a44.28,44.28,0,0,1-6.76-3.16l-.55-.31A46.17,46.17,0,0,1,10.93,76.61c3.7-7.38,11.82-19,27.42-22.83a17.4,17.4,0,0,1,8.79,0C59.37,57.1,63.41,74.39,63.41,74.39Z"/><path class="cls-2" d="M87,69.92A46.67,46.67,0,0,1,33,91.23c-.88-.27-1.76-.57-2.62-.89a44.28,44.28,0,0,1-6.76-3.16C24.79,74.32,26,63.76,26.86,61.7c1.65-3.84,12.74-6.53,20.28-7.94,4-.75,7.07-1.14,7.07-1.14s14.88.6,27,10.69A35.07,35.07,0,0,1,87,69.92Z"/><path class="cls-3" d="M36.43,18.6s-5,5.64-2.24,11.86,5.68-11.3,5.68-11.3Z"/><path class="cls-4" d="M53.21,44l.19,11.19s-2,3.25-8.51,3.89c-4.87.48-6.6-.59-6.6-.59l.59-5.68.57-5.54,11.78-2.8Z"/><path d="M51.23,44.42c0,.31,1.8,1.27,1.63,1.69-2.41,5.63-11.39,8.46-14.2,8.76l.79-7.65Z"/><path class="cls-4" d="M38.56,19.16A10.55,10.55,0,0,0,35.31,24c-1.46,4.31-4.41,14.4-2.48,20.58,2.51,8,9.76,6.53,14.06,4.83a14.41,14.41,0,0,0,6.25-4.48,6.09,6.09,0,0,0,6.71-2.65c2.6-3.92.77-8.28-1.59-9.21s-5.07.85-5.07.85l2-4.26S47.06,12.23,38.56,19.16Z"/><path d="M53.79,39.4a.51.51,0,0,1-.4-.2.5.5,0,0,1,.1-.7l4.09-3a.5.5,0,0,1,.7.11.51.51,0,0,1-.1.7l-4.09,3A.49.49,0,0,1,53.79,39.4Z"/><path d="M58.38,39.26h-.11l-3.34-.8a.51.51,0,0,1-.37-.6.5.5,0,0,1,.61-.37l3.33.79a.51.51,0,0,1,.37.61A.49.49,0,0,1,58.38,39.26Z"/><path d="M35.26,32.23l-.12,0a.49.49,0,0,1-.36-.6L35.44,29a.49.49,0,0,1,.6-.36.51.51,0,0,1,.37.6l-.66,2.58A.5.5,0,0,1,35.26,32.23Z"/><path d="M42.35,32.61l-.12,0a.5.5,0,0,1-.36-.61l.66-2.58a.49.49,0,0,1,.6-.36.51.51,0,0,1,.37.61l-.66,2.58A.5.5,0,0,1,42.35,32.61Z"/><path d="M34.86,26.6a.5.5,0,0,1,0-1l2.12-.23a.51.51,0,0,1,.55.45.5.5,0,0,1-.44.55l-2.13.23Z"/><path d="M44.49,28.31a.65.65,0,0,1-.19,0l-2.89-1.21a.5.5,0,1,1,.39-.92l2.88,1.21A.49.49,0,0,1,45,28,.51.51,0,0,1,44.49,28.31Z"/><path class="cls-3" d="M53.19,33.93S52,38.59,51.14,38s-1.73-7.29-1.06-10.29,1.15-4.52,1.15-4.52-12.23-1.09-15.45-4,3.59-4.78,10.55-3.46S56,19.69,56,19.69s4.36-.65,6,2S60,34.47,60,34.47,58.85,31.94,53.19,33.93Z"/><path class="cls-3" d="M29.88,38.74S33.29,35,35,35.52s2.37,3.11,2.37,3.11,2.07-2.85,4.34-2.05,7.16,1.1,7.21,1.89-1.36,1.07-1.36,1.07S36.1,40.87,29.88,38.74Z"/><path class="cls-3" d="M53.19,33.93s-.2,7.55,0,11S43.66,53.81,37,50.82s-4.83-11.69-4.83-11.69l5.93.55A11.17,11.17,0,0,1,41,38.58a7.6,7.6,0,0,1,3.62.53Z"/><path d="M39,41.43a.5.5,0,0,1,0-1,3.77,3.77,0,0,0,2.74-1.68.5.5,0,0,1,.67-.23.51.51,0,0,1,.22.67,4.73,4.73,0,0,1-3.53,2.24Z"/><path d="M37.19,37.83a.5.5,0,0,1-.44-.28c-1.67-3.32.72-6.81.82-6.95a.5.5,0,1,1,.82.57s-2.14,3.15-.75,5.93a.5.5,0,0,1-.22.67A.49.49,0,0,1,37.19,37.83Z"/><path class="cls-5" d="M41.83,59.57a26.1,26.1,0,0,1-6-.69.5.5,0,0,1,.25-1c.11,0,11.62,2.91,17.36-3.89a.5.5,0,0,1,.76.64C50.81,58.65,45.78,59.57,41.83,59.57Z"/></g></g></svg>