<svg xmlns="http://www.w3.org/2000/svg" viewBox="0 0 93.25 93.24"><defs><style>.cls-1{fill:#110828;}.cls-2{fill:#5e1dbb;}.cls-3{fill:#ffb700;}.cls-4{fill:#fd8753;}.cls-5{fill:#e2209e;}</style></defs><g id="Layer_2" data-name="Layer 2"><g id="Layer_1-2" data-name="Layer 1"><path class="cls-1" d="M93.25,46.62A46.45,46.45,0,0,1,82.86,76l-.5.6c-.13.16-.26.32-.4.47l-.58.66a46.64,46.64,0,0,1-11,9c-.23.14-.46.28-.7.41A45.57,45.57,0,0,1,61,91c-.48.16-1,.31-1.46.45a46.82,46.82,0,0,1-27.78-.62,45.79,45.79,0,0,1-5-2c-.41-.19-.81-.39-1.21-.6a46.74,46.74,0,0,1-8.75-5.79l-.21-.17c-.35-.29-.69-.59-1-.89a46.31,46.31,0,0,1-5.42-5.78c-.11-.12-.2-.25-.3-.37A46.62,46.62,0,1,1,93.25,46.62Z"/><path class="cls-2" d="M54.19,27.49s8.46-6.77,4.6-12.37-12.1.1-12.1.1a6.43,6.43,0,0,0-7.77-.62c-4.55,2.61-5.07,9-5.07,9s-4.63-.11-4.9,5.53,5.81,10.66,5.81,10.66Z"/><path class="cls-3" d="M70.4,86.72c-.23.14-.46.28-.7.41A45.57,45.57,0,0,1,61,91c-.48.16-1,.31-1.46.45a46.82,46.82,0,0,1-27.78-.62,45.79,45.79,0,0,1-5-2c-.41-.19-.81-.39-1.21-.6a46.74,46.74,0,0,1-8.75-5.79l-.21-.17c-.35-.29-.69-.59-1-.89.2-7.29.29-7.83,1.46-10a39.51,39.51,0,0,1,5-6.6S23.21,58,23.21,58c8.59-7.86,22.73-6.66,22.73-6.66s8.58-2.26,21.49,6.8Z"/><path class="cls-4" d="M39.34,42.86,39.23,53.6s1.91,3.11,8.19,3.69c4.68.42,6.34-.62,6.34-.62l-.6-5.45-.59-5.31L41.24,43.3Z"/><path d="M41.24,43.3a3.74,3.74,0,0,0,.3,1c2.36,5.39,8.92,6.61,11.62,6.88l-.59-5.31Z"/><path class="cls-4" d="M55.21,21.43s5.51,13.53,3.21,21S49.3,48.54,45.24,47a13.6,13.6,0,0,1-5.9-4.12A5.78,5.78,0,0,1,33,40.44c-2.47-3.63-.79-7.68,1.42-8.56s4.77.76,4.77.76L37.26,28.7S46.33,9.16,55.21,21.43Z"/><path d="M38.75,38.51a.53.53,0,0,1-.3-.09l-4.81-3.53a.5.5,0,0,1,.59-.81L39,37.61a.5.5,0,0,1-.29.9Z"/><path d="M34.33,38.41a.49.49,0,0,1-.48-.38.51.51,0,0,1,.36-.61l3.2-.78A.5.5,0,0,1,38,37a.51.51,0,0,1-.37.61l-3.2.79Z"/><path d="M46.15,27.08a.51.51,0,0,1-.47-.32.52.52,0,0,1,.3-.65,20.61,20.61,0,0,1,4.21-.5.53.53,0,0,1,.52.49.5.5,0,0,1-.49.51,19.65,19.65,0,0,0-3.89.44A.57.57,0,0,1,46.15,27.08Z"/><path d="M56.58,26.68h-.07a9.91,9.91,0,0,0-1.69-.19.52.52,0,0,1-.53-.47.5.5,0,0,1,.46-.53,9,9,0,0,1,1.91.2.51.51,0,0,1,.42.57A.5.5,0,0,1,56.58,26.68Z"/><path d="M54.79,38l-.15,0a.5.5,0,0,1-.33-.62,5.48,5.48,0,0,0-1.68-6,.5.5,0,0,1,.61-.8,6.62,6.62,0,0,1,2,7.08A.51.51,0,0,1,54.79,38Z"/><path d="M56.48,31.85a.5.5,0,0,1-.48-.38L55.35,29a.5.5,0,0,1,1-.25L57,31.22a.5.5,0,0,1-.36.61Z"/><path d="M49.68,31.91a.5.5,0,0,1-.48-.37l-.65-2.47a.5.5,0,0,1,.36-.61.5.5,0,0,1,.61.35l.65,2.47a.5.5,0,0,1-.36.61A.3.3,0,0,1,49.68,31.91Z"/><path class="cls-2" d="M56.31,24.48a4.56,4.56,0,0,0-3.83-2.22,5.8,5.8,0,0,0-4.26,1.83s1.13,4.53-2.54,6.89-6.48,1.66-6.48,1.66l-2.64-1-1.9-3.88,7.73-8.17,10-5.13,5,4.64Z"/><path d="M51.78,41.15A4.08,4.08,0,0,1,48,38.82a.5.5,0,0,1,.25-.66.49.49,0,0,1,.66.24,3.13,3.13,0,0,0,3,1.74.5.5,0,0,1,.53.46.49.49,0,0,1-.45.54Z"/><path class="cls-5" d="M53.16,51.22a18.06,18.06,0,0,1,3.54,6.69c.75,2.46.56,6.09,0,6.09s-4.39-6-6.86-6.35-4.53,6.81-5.58,7.06-5.16-2.57-6.61-6.66a6.56,6.56,0,0,1,1.15-6.71S51.59,61,53.16,51.22Z"/><path class="cls-3" d="M82.36,76.56c-.13.16-.26.32-.4.47l-.58.66A46.58,46.58,0,0,1,69.7,87.13,45.57,45.57,0,0,1,61,91l6.47-32.87A37.08,37.08,0,0,1,82.12,76Z"/><path class="cls-3" d="M25.49,88.18a46.74,46.74,0,0,1-8.75-5.79l-.21-.17a45.72,45.72,0,0,1-6.45-6.67C15.86,63.27,23.21,58,23.21,58Z"/></g></g></svg>