<svg xmlns="http://www.w3.org/2000/svg" viewBox="0 0 93.25 93.24"><defs><style>.cls-1{fill:#110828;}.cls-2{fill:#5e1dbb;}.cls-3{fill:#f7c537;}.cls-4{fill:#e2209e;}.cls-5{fill:#ffb700;}.cls-6{fill:#fd8753;}.cls-7{fill:#9364ed;}</style></defs><g id="Layer_2" data-name="Layer 2"><g id="Layer_1-2" data-name="Layer 1"><path class="cls-1" d="M93.25,46.62a46.35,46.35,0,0,1-9.92,28.74c0,.06-.09.12-.14.17A46.06,46.06,0,0,1,71,86.32l-.81.49a45.8,45.8,0,0,1-11.06,4.72A44.61,44.61,0,0,1,51.11,93L51,93c-1.42.14-2.87.21-4.33.21A46.54,46.54,0,0,1,41.74,93c-1.05-.11-2.09-.26-3.12-.44s-2.26-.44-3.37-.72l-.64-.16a44.32,44.32,0,0,1-5.22-1.73l-.12,0L29,89.76a43.66,43.66,0,0,1-6.23-3.12l-.7-.42-1.09-.7-.05,0-.83-.55-.73-.52-.8-.59-.07-.06A44.65,44.65,0,0,1,14.08,80c-.22-.21-.44-.43-.64-.65-.64-.64-1.26-1.31-1.85-2a45.78,45.78,0,0,1-5.91-8.43A46.63,46.63,0,1,1,93.25,46.62Z"/><path class="cls-2" d="M57,20.81s5.21-.85,5.31,12.92,0,15.25,0,15.25H49.54L52,24.57Z"/><path class="cls-2" d="M36.56,16.78a46.33,46.33,0,0,0-7.34,15.58c-1.85,7.3-3.11,15-3.11,15l14,1.63.41-24.53Z"/><path class="cls-3" d="M41.63,59.67a15.09,15.09,0,0,1-5.26-.9.48.48,0,0,1-.25-.63.47.47,0,0,1,.62-.25A14.78,14.78,0,0,0,51,55.33a.49.49,0,0,1,.67.07.48.48,0,0,1-.07.67A15.65,15.65,0,0,1,41.63,59.67Z"/><path class="cls-4" d="M71,86.32l-.81.49a45.8,45.8,0,0,1-11.06,4.72A44.61,44.61,0,0,1,51.11,93L51,93c-1.42.14-2.87.21-4.33.21A46.54,46.54,0,0,1,41.74,93c-1.05-.11-2.09-.26-3.12-.44s-2.26-.44-3.37-.72l-.64-.16a44.32,44.32,0,0,1-5.22-1.73l-.12,0a44.36,44.36,0,0,1-6.55-3.25l-.7-.42-1.09-.7-.05,0-.83-.55A58.43,58.43,0,0,1,24,68.66c.06-.15.12-.3.19-.44A25.56,25.56,0,0,1,37,55a18.59,18.59,0,0,1,4.23-1.37,62.19,62.19,0,0,1,9.54-.88c6.65-.1,14.79,1,17.36,6.51C69.94,63.17,70.73,74.32,71,86.32Z"/><path class="cls-5" d="M37.92,53.75A3.42,3.42,0,0,0,37,55c-2.32,4.37-5.23,18.68-8,34.78a43.66,43.66,0,0,1-6.23-3.12l-.7-.42-1.09-.7-.05,0-.83-.55-.73-.52-.8-.59-.07-.06c.05-.52.07-.79.07-.79l6.22-19.54A32.47,32.47,0,0,1,31,57.11,23.87,23.87,0,0,1,37.92,53.75Z"/><path class="cls-5" d="M83.33,75.36c0,.06-.09.12-.14.17a46.89,46.89,0,0,1-24,16A44.61,44.61,0,0,1,51.11,93c.37-20.65.54-38.81-.19-39.47a.82.82,0,0,1-.18-.81,5.64,5.64,0,0,1,1-1.79C71.1,53.35,82.07,72.45,83.33,75.36Z"/><path class="cls-6" d="M51.57,42.93,51.33,53.8s-2,3.07-8.39,3.45c-4.75.28-6.38-.83-6.38-.83l.78-5.48.77-5.35,11.53-2.27Z"/><path d="M49.64,43.32a4,4,0,0,1-.34,1c-2.55,5.37-9.22,6.39-12,6.58l.77-5.35Z"/><path class="cls-6" d="M36.24,20.77s-6,13.5-3.93,21.11,9,6.47,13.17,5a13.79,13.79,0,0,0,6.09-4,5.86,5.86,0,0,0,6.48-2.25C60.66,37.11,59.1,33,56.89,32s-4.84.62-4.84.62l2.09-3.92S45.6,8.66,36.24,20.77Z"/><path d="M36.74,38a.49.49,0,0,1-.47-.35c-.91-2.93,1.15-5.9,1.24-6a.49.49,0,0,1,.69-.12.5.5,0,0,1,.13.69s-1.87,2.7-1.11,5.15a.5.5,0,0,1-.33.63Z"/><path d="M52.62,39a.51.51,0,0,1-.34-.14.5.5,0,0,1,0-.71l3.68-3.89a.5.5,0,1,1,.72.68L53,38.88A.52.52,0,0,1,52.62,39Z"/><path d="M56.52,38h-.08L53.9,37.6a.5.5,0,0,1-.42-.57.51.51,0,0,1,.57-.42l2.54.39a.5.5,0,0,1-.07,1Z"/><path d="M45.23,28.16a.5.5,0,0,1-.45-.27c-.59-1.15-2.18-.83-2.25-.81a.51.51,0,0,1-.59-.39.49.49,0,0,1,.38-.59c.1,0,2.41-.5,3.35,1.33a.49.49,0,0,1-.22.67A.46.46,0,0,1,45.23,28.16Z"/><path d="M34.09,27a.54.54,0,0,1-.3-.1.51.51,0,0,1-.11-.7,2.73,2.73,0,0,1,3.82-.47.5.5,0,0,1,.15.69.51.51,0,0,1-.7.15,1.71,1.71,0,0,0-2.46.23A.51.51,0,0,1,34.09,27Z"/><path class="cls-7" d="M42.63,57.94a19.73,19.73,0,0,1-6.25-1,.5.5,0,0,1-.29-.65.49.49,0,0,1,.64-.28c.1,0,9.22,3.41,14.22-2.49a.5.5,0,1,1,.76.65A11.44,11.44,0,0,1,42.63,57.94Z"/><path d="M42.88,33h-.07a.5.5,0,0,1-.43-.56l.3-2.34L42,29a.51.51,0,0,1,.16-.69.49.49,0,0,1,.69.16l.77,1.21a.5.5,0,0,1,.07.34l-.32,2.52A.5.5,0,0,1,42.88,33Z"/><path d="M35.39,32.39h-.07a.51.51,0,0,1-.42-.57l.34-2.31-.84-1.09a.51.51,0,0,1,.1-.7.49.49,0,0,1,.7.1l1,1.25a.52.52,0,0,1,.1.38L35.89,32A.51.51,0,0,1,35.39,32.39Z"/><path class="cls-2" d="M33.51,23.88s4.36-.21,7,0l2.6.21,1.34-3.28v3.81a13.63,13.63,0,0,1,3.45,1.91,19,19,0,0,1,1.88,3l1.42-1.84-.85,7.87S51.64,31.91,54.2,32a7.59,7.59,0,0,1,3.37.53s2.18-7.55,1.81-9.67a2.33,2.33,0,0,0-2.38-2s-2.11-7.2-12.48-7.2S33.51,23.88,33.51,23.88Z"/><path class="cls-5" d="M29.77,58.08,24.16,68.22,22,86.22l-1.09-.7-.05,0c-.52-.34-1.05-.7-1.56-1.07l-.8-.59A46.09,46.09,0,0,1,14.08,80c-.22-.21-.44-.43-.64-.65-.64-.64-1.26-1.31-1.85-2C18,67.65,29.38,58.39,29.77,58.08Z"/><path d="M40,41.5a3.93,3.93,0,0,1-1.21-.19.5.5,0,0,1,.34-1A2.56,2.56,0,0,0,42,39.53a.51.51,0,0,1,.7-.11.5.5,0,0,1,.11.7A3.35,3.35,0,0,1,40,41.5Z"/></g></g></svg>