<svg xmlns="http://www.w3.org/2000/svg" viewBox="0 0 93.24 93.24"><defs><style>.cls-1{fill:#110828;}.cls-2{fill:#fff;}.cls-3{fill:#e2209e;}.cls-4{fill:#9364ed;}.cls-5{fill:#fd8753;}.cls-6{fill:#07cbf5;}</style></defs><g id="Layer_2" data-name="Layer 2"><g id="Layer_1-2" data-name="Layer 1"><path class="cls-1" d="M93.24,46.62a46.51,46.51,0,0,1-6.82,24.3c-.75,1.23-1.56,2.41-2.41,3.56A47.18,47.18,0,0,1,72.75,85.24a46.31,46.31,0,0,1-19.49,7.53,44.72,44.72,0,0,1-5.71.45c-.31,0-.62,0-.93,0a46.48,46.48,0,0,1-35.19-16c-.95-1.1-1.86-2.24-2.71-3.42A46.62,46.62,0,1,1,93.24,46.62Z"/><path class="cls-2" d="M40,29.75s-13.26-4.61-14.93,9.06,19.21,19.33,22.28,7.41S40,29.75,40,29.75Z"/><path class="cls-3" d="M84,74.48A47.18,47.18,0,0,1,72.75,85.24a46.31,46.31,0,0,1-19.49,7.53l-5.8-12.43L42.4,69.49,40,63.15l-2.7-7,3.81-.44,2.24-.26,5.81-.68L55.8,54A37.48,37.48,0,0,1,82.35,71.41C82.9,72.32,83.45,73.35,84,74.48Z"/><path class="cls-4" d="M72.75,85.24a46.31,46.31,0,0,1-19.49,7.53,44.72,44.72,0,0,1-5.71.45c-.31,0-.62,0-.93,0A46.85,46.85,0,0,1,35.69,92L40,63.15l1.11-7.46.41-2.79L42,53l7.09,1.72,7,1.68S70.32,64.62,72.75,85.24Z"/><path class="cls-2" d="M61.31,37.54a13.18,13.18,0,0,0,3-10.4c-.58-4.35-2.46-5.82-2.46-5.82s3.13-5.8-5.61-5.74a24.52,24.52,0,0,0-14,4.17s-3.92-2.09-5.87,2.5S36,33.76,36,33.76Z"/><path class="cls-5" d="M41.91,44.08l-.1,10.66s1.9,3.08,8.13,3.64c4.64.42,6.13-2,6.13-2l-1-9.34L43.79,44.51Z"/><path d="M41.93,43.43a3.68,3.68,0,0,0,.3,1c2.34,5.35,10.71,7.64,13.39,7.9L55,47.09Z"/><path class="cls-5" d="M57.63,22.81s5.47,13.42,3.2,20.82-9,6.07-13.07,4.53a13.4,13.4,0,0,1-5.85-4.08,5.74,5.74,0,0,1-6.28-2.4c-2.46-3.59-.8-7.61,1.4-8.48s4.73.75,4.73.75L39.83,30S48.81,10.65,57.63,22.81Z"/><path class="cls-2" d="M41.76,34s5.66,1.34,9.84-4.87,3.91-8.84,3.91-8.84l3.72,6.69s1-4.51-.68-7.47S54.93,17,54.93,17L42.24,19.75l-3.66,10Z"/><path d="M56.61,39.74l-.16,0a.5.5,0,0,1-.31-.63c.82-2.38-.9-5-.92-5.08a.5.5,0,0,1,.83-.55c.09.13,2,3.11,1,5.95A.5.5,0,0,1,56.61,39.74Z"/><path d="M41,40.23a.46.46,0,0,1-.37-.17l-3.49-3.93a.5.5,0,0,1,0-.7.5.5,0,0,1,.71,0l3.49,3.93a.51.51,0,0,1,0,.71A.5.5,0,0,1,41,40.23Z"/><path d="M37.23,39.09a.5.5,0,0,1-.06-1l2.5-.3a.5.5,0,1,1,.12,1l-2.5.3Z"/><path d="M59.54,29h-.1l-2.35-.49a.5.5,0,0,1,.21-1l2.34.49a.5.5,0,0,1-.1,1Z"/><path d="M49.69,30.17a.5.5,0,0,1-.18-1l3.79-1.46A.5.5,0,0,1,54,28a.5.5,0,0,1-.29.64l-3.79,1.46A.57.57,0,0,1,49.69,30.17Z"/><path d="M59.35,34.41a.5.5,0,0,1-.48-.37l-.65-2.42a.48.48,0,0,1,.1-.46l.77-.88a.5.5,0,0,1,.71,0,.5.5,0,0,1,0,.7l-.59.67.59,2.17a.5.5,0,0,1-.36.61Z"/><path d="M52.63,34.82a.49.49,0,0,1-.48-.37L51.49,32a.51.51,0,0,1,.12-.47l1-1.15a.51.51,0,0,1,.71,0,.5.5,0,0,1,0,.71l-.87.95.58,2.15a.51.51,0,0,1-.35.62Z"/><path class="cls-2" d="M51.15,59a18.85,18.85,0,0,1-8-2.31.51.51,0,0,1-.19-.68.5.5,0,0,1,.68-.19c.09,0,8.38,4.63,12.07.3a.5.5,0,0,1,.77.65A6.67,6.67,0,0,1,51.15,59Z"/><path class="cls-6" d="M61.34,39.36h-.18a4.32,4.32,0,0,1-3.8-4.74,4.32,4.32,0,0,1,4.24-4.35,3.81,3.81,0,0,1,2.8,1.5,5,5,0,0,1-.3,6.37A3.79,3.79,0,0,1,61.34,39.36Zm.09-8.1a3.35,3.35,0,0,0-3.07,3.4,3.33,3.33,0,0,0,2.85,3.69,2.78,2.78,0,0,0,2.16-.91,4,4,0,0,0,.25-5.06,2.82,2.82,0,0,0-2.07-1.12Z"/><path class="cls-6" d="M51.3,39.55h-.22a4.67,4.67,0,1,1,.22,0Zm0-8.1a3.53,3.53,0,0,0-2.38.92,3.55,3.55,0,0,0-.24,5,3.55,3.55,0,1,0,2.79-5.93Z"/><path class="cls-6" d="M57.59,34.83a.49.49,0,0,1-.3-.1,2.69,2.69,0,0,0-1.88,0,.5.5,0,0,1-.28-1c.18-.05,1.83-.51,2.77.2a.5.5,0,0,1-.31.89Z"/><path class="cls-6" d="M47.26,35.31a.49.49,0,0,1-.41-.21c-1-1.44-5.64-1.68-7.34-1.65a.5.5,0,0,1,0-1c.68,0,6.64-.05,8.17,2.06a.51.51,0,0,1-.11.7A.46.46,0,0,1,47.26,35.31Z"/><path class="cls-3" d="M47.46,80.34c.2,5,.17,9.6.09,12.88-.31,0-.62,0-.93,0a46.48,46.48,0,0,1-35.19-16c-.95-1.1-1.86-2.24-2.71-3.42,16.81-20.49,33.11-21,33.11-21A3.28,3.28,0,0,1,42,53a16.92,16.92,0,0,1,1.28,2.4C46.07,61.64,47.12,71.59,47.46,80.34Z"/><path d="M55.16,43.23a4.35,4.35,0,0,1-2.67-1.17.5.5,0,1,1,.69-.72s1.42,1.33,2.68.74a.5.5,0,0,1,.67.24.5.5,0,0,1-.24.66A2.6,2.6,0,0,1,55.16,43.23Z"/></g></g></svg>