<svg xmlns="http://www.w3.org/2000/svg" viewBox="0 0 93.25 93.24"><defs><style>.cls-1{fill:#110828;}.cls-2{fill:#5e1dbb;}.cls-3{fill:#9364ed;}.cls-4{fill:#fd8753;}.cls-5{fill:#fff;}.cls-6{fill:#07cbf5;}</style></defs><g id="Layer_2" data-name="Layer 2"><g id="Layer_1-2" data-name="Layer 1"><path class="cls-1" d="M93.25,46.62a46.38,46.38,0,0,1-7.33,25.1,45.38,45.38,0,0,1-2.67,3.75l-.57.71c-.13.17-.26.33-.4.49-.86,1-1.77,2-2.71,3a44.71,44.71,0,0,1-4.88,4.23l-.15.11-.71.53-.39.27c-.22.16-.44.32-.67.47l-.68.45-.31.19a41.08,41.08,0,0,1-3.92,2.26c-.31.16-.62.32-.94.47a47.24,47.24,0,0,1-4.46,1.88,45,45,0,0,1-6.24,1.77,46.64,46.64,0,0,1-9.59,1c-.65,0-1.31,0-2,0s-1.49-.08-2.23-.15H42.3L42,93c-1.27-.12-2.53-.3-3.77-.54Q37,92.25,35.87,92a46.89,46.89,0,0,1-11.71-4.52l-.11-.06c-.2-.11-.4-.22-.59-.34-.47-.26-.94-.54-1.4-.83-.14-.08-.28-.16-.41-.25-.55-.34-1.08-.7-1.61-1.07-.95-.65-1.88-1.35-2.78-2.09l-.32-.25Q15,81,13.29,79.21c-.33-.33-.65-.67-1-1s-.8-.88-1.18-1.33-.63-.75-.93-1.13l-.43-.53,0-.06c-.78-1-1.51-2-2.2-3.09a46.62,46.62,0,1,1,85.7-25.44Z"/><path class="cls-2" d="M66.88,59.23S66.05,14.6,50.27,13s-17.66,9.48-17.66,9.48-3.93,1.4-4.73,7.4-1.17,29.94-1.17,29.94l35.64,2Z"/><path class="cls-3" d="M83.25,75.47l-.57.71c-.13.17-.26.33-.4.49-.86,1-1.77,2-2.71,3a44.71,44.71,0,0,1-4.88,4.23l-.15.11-.71.53-.39.27c-.22.16-.44.32-.67.47l-.68.45-.31.19a41.08,41.08,0,0,1-3.92,2.26c-.31.16-.62.32-.94.47a47.24,47.24,0,0,1-4.46,1.88,45,45,0,0,1-6.24,1.77,46.64,46.64,0,0,1-9.59,1c-.65,0-1.31,0-2,0s-1.49-.08-2.23-.15H42.3c-1.39-.13-2.77-.32-4.12-.58Q37,92.25,35.87,92a46.89,46.89,0,0,1-11.71-4.52l-.11-.06c-.2-.11-.4-.22-.59-.34-.47-.26-.94-.54-1.4-.83C19.34,75,18.4,64.92,22,60.73a5.77,5.77,0,0,1,.64-.67A29.1,29.1,0,0,1,25.4,58l.1-.06a34.47,34.47,0,0,1,5.22-2.74l.06,0C42.63,50.21,57.9,51,66.23,54.51,71.55,56.73,78.11,66.47,83.25,75.47Z"/><path class="cls-4" d="M39.34,43.24v11s2,3.15,8.39,3.67c4.78.39,6.29-2.07,6.29-2.07l-1.16-9.59L41.28,43.67Z"/><path d="M39.36,42.58a3.23,3.23,0,0,0,.32,1.05c2.45,5.48,11.08,7.76,13.84,8l-.66-5.41Z"/><path class="cls-5" d="M74.17,81.41l-.34,3.08-.39.27c-.22.16-.44.32-.67.47l.44-3.92c.76-6.76-2.6-15.14-2.64-15.22a.48.48,0,0,1,.27-.63.48.48,0,0,1,.63.26C71.6,66.08,75,74.41,74.17,81.41Z"/><path class="cls-4" d="M55.31,21.24S61.06,35,58.79,42.62s-9.24,6.32-13.39,4.77a13.86,13.86,0,0,1-6.06-4.14,5.9,5.9,0,0,1-6.48-2.41C30.3,37.17,32,33,34.22,32.1s4.87.73,4.87.73l-2-4S46.13,8.81,55.31,21.24Z"/><path d="M54.42,38.64a.41.41,0,0,1-.16,0,.51.51,0,0,1-.32-.63c.82-2.46-1-5.2-1-5.22a.51.51,0,0,1,.14-.7.5.5,0,0,1,.69.14c.09.13,2.1,3.17,1.12,6.1A.51.51,0,0,1,54.42,38.64Z"/><path d="M38.38,39.28a.49.49,0,0,1-.37-.16l-3.62-4a.5.5,0,1,1,.74-.67l3.62,4a.49.49,0,0,1,0,.7A.46.46,0,0,1,38.38,39.28Z"/><path d="M34.48,38.14a.5.5,0,0,1-.5-.43.49.49,0,0,1,.43-.56L37,36.82a.5.5,0,0,1,.56.43.51.51,0,0,1-.44.56l-2.57.33Z"/><path d="M57.33,27.53h-.1L54.81,27a.49.49,0,0,1-.39-.58.51.51,0,0,1,.59-.4l2.41.49a.48.48,0,0,1,.39.58A.49.49,0,0,1,57.33,27.53Z"/><path d="M47.21,28.86a.48.48,0,0,1-.45-.28.5.5,0,0,1,.24-.67l3.23-1.53a.49.49,0,0,1,.66.23.5.5,0,0,1-.23.67l-3.23,1.54A.57.57,0,0,1,47.21,28.86Z"/><path d="M56.22,33.13a.52.52,0,0,1-.49-.37L55,30.28a.48.48,0,0,1,.1-.46l.78-.91a.5.5,0,1,1,.76.66l-.61.7.63,2.22a.5.5,0,0,1-.35.62Z"/><path d="M48.34,33.62a.5.5,0,0,1-.48-.37l-.7-2.48a.5.5,0,0,1,.11-.47l1.08-1.19a.49.49,0,0,1,.7,0,.5.5,0,0,1,0,.71l-.89,1L48.82,33a.51.51,0,0,1-.35.62Z"/><path class="cls-2" d="M59.25,26.12a34.41,34.41,0,0,0-6.45-.66l-2.65.1-1.08-4.27V26a13.87,13.87,0,0,0-6.82,3.46L40.5,25.82l.74,4.52-2.15,2.49-3.25-3,2.08-6.31s4.9-6.84,5.28-6.92,7.45-.47,7.45-.47,6.08,2.37,6.23,2.57S59.25,26.12,59.25,26.12Z"/><path class="cls-5" d="M48.58,58a17.3,17.3,0,0,1-10-3.33.49.49,0,0,1-.13-.69.5.5,0,0,1,.7-.13c8.37,5.79,15.11,2,15.39,1.8a.49.49,0,0,1,.68.17.5.5,0,0,1-.17.69A14.07,14.07,0,0,1,48.58,58Z"/><path class="cls-3" d="M42,93c-1.27-.12-2.53-.3-3.77-.54Q37,92.25,35.87,92a46.89,46.89,0,0,1-11.71-4.52l-.11-.06c-.2-.11-.4-.22-.59-.34-.47-.26-.94-.54-1.4-.83-.14-.08-.28-.16-.41-.25-.55-.34-1.08-.7-1.61-1.07-.95-.65-1.88-1.35-2.78-2.09l-.32-.25Q15,81,13.29,79.21c-.33-.33-.65-.67-1-1s-.8-.88-1.18-1.33A43.82,43.82,0,0,1,22,60.73,34,34,0,0,1,25.4,58l.1-.06a21.43,21.43,0,0,1,5.22-2.74l.06,0S42,93,42,93Z"/><path d="M53,42.82a5.52,5.52,0,0,1-2.86-1.44.5.5,0,0,1-.14-.56.53.53,0,0,1,.47-.32l4.47.08a.48.48,0,0,1,.45.31.49.49,0,0,1-.1.54,7.74,7.74,0,0,1-1.67,1.24A1.32,1.32,0,0,1,53,42.82Zm-.87-1.29c.44.23.83.35,1,.26a3.85,3.85,0,0,0,.4-.24Z"/><path class="cls-6" d="M39.34,43a2.29,2.29,0,1,1-2.29-2.29A2.3,2.3,0,0,1,39.34,43Z"/></g></g></svg>